<?xml version="1.0" encoding="UTF-8" standalone="no"?>
<!DOCTYPE svg PUBLIC "-//W3C//DTD SVG 1.1//EN"
 "http://www.w3.org/Graphics/SVG/1.1/DTD/svg11.dtd">
<!-- Generated by graphviz version 12.2.1 (0)
 -->
<!-- Pages: 1 -->
<svg width="795pt" height="871pt"
 viewBox="0.00 0.00 795.25 871.00" xmlns="http://www.w3.org/2000/svg" xmlns:xlink="http://www.w3.org/1999/xlink">
<g id="graph0" class="graph" transform="scale(1 1) rotate(0) translate(4 867)">
<polygon fill="white" stroke="none" points="-4,4 -4,-867 791.25,-867 791.25,4 -4,4"/>
<!-- ODE Solver Template\n(curve_template.f90) -->
<g id="node1" class="node">
<title>ODE Solver Template\n(curve_template.f90)</title>
<polygon fill="none" stroke="black" points="185.75,-863 55,-863 55,-822 191.75,-822 191.75,-857 185.75,-863"/>
<polyline fill="none" stroke="black" points="185.75,-863 185.75,-857"/>
<polyline fill="none" stroke="black" points="191.75,-857 185.75,-857"/>
<text text-anchor="middle" x="123.38" y="-845.7" font-family="Times New Roman,serif" font-size="14.00">ODE Solver Template</text>
<text text-anchor="middle" x="123.38" y="-829.2" font-family="Times New Roman,serif" font-size="14.00">(curve_template.f90)</text>
</g>
<!-- json2fortran.rb -->
<g id="node5" class="node">
<title>json2fortran.rb</title>
<polygon fill="none" stroke="black" points="398.88,-786 305.88,-786 301.88,-782 301.88,-750 394.88,-750 398.88,-754 398.88,-786"/>
<polyline fill="none" stroke="black" points="394.88,-782 301.88,-782"/>
<polyline fill="none" stroke="black" points="394.88,-782 394.88,-750"/>
<polyline fill="none" stroke="black" points="394.88,-782 398.88,-786"/>
<text text-anchor="middle" x="350.38" y="-762.95" font-family="Times New Roman,serif" font-size="14.00">json2fortran.rb</text>
</g>
<!-- ODE Solver Template\n(curve_template.f90)&#45;&gt;json2fortran.rb -->
<g id="edge24" class="edge">
<title>ODE Solver Template\n(curve_template.f90)&#45;&gt;json2fortran.rb</title>
<path fill="none" stroke="black" d="M185.7,-821.59C218.49,-811.12 258.47,-798.35 290.83,-788.02"/>
<polygon fill="black" stroke="black" points="291.59,-791.45 300.05,-785.07 289.46,-784.78 291.59,-791.45"/>
</g>
<!-- GNUplot Template\n(curve_template.gplt) -->
<g id="node2" class="node">
<title>GNUplot Template\n(curve_template.gplt)</title>
<polygon fill="none" stroke="black" points="337.25,-863 209.5,-863 209.5,-822 343.25,-822 343.25,-857 337.25,-863"/>
<polyline fill="none" stroke="black" points="337.25,-863 337.25,-857"/>
<polyline fill="none" stroke="black" points="343.25,-857 337.25,-857"/>
<text text-anchor="middle" x="276.38" y="-845.7" font-family="Times New Roman,serif" font-size="14.00">GNUplot Template</text>
<text text-anchor="middle" x="276.38" y="-829.2" font-family="Times New Roman,serif" font-size="14.00">(curve_template.gplt)</text>
</g>
<!-- GNUplot Template\n(curve_template.gplt)&#45;&gt;json2fortran.rb -->
<g id="edge25" class="edge">
<title>GNUplot Template\n(curve_template.gplt)&#45;&gt;json2fortran.rb</title>
<path fill="none" stroke="black" d="M296.6,-821.69C305.25,-813.21 315.45,-803.22 324.63,-794.23"/>
<polygon fill="black" stroke="black" points="326.92,-796.88 331.62,-787.38 322.02,-791.88 326.92,-796.88"/>
</g>
<!-- Paraview Template\n(curve_template.py) -->
<g id="node3" class="node">
<title>Paraview Template\n(curve_template.py)</title>
<polygon fill="none" stroke="black" points="481.5,-863 361.25,-863 361.25,-822 487.5,-822 487.5,-857 481.5,-863"/>
<polyline fill="none" stroke="black" points="481.5,-863 481.5,-857"/>
<polyline fill="none" stroke="black" points="487.5,-857 481.5,-857"/>
<text text-anchor="middle" x="424.38" y="-845.7" font-family="Times New Roman,serif" font-size="14.00">Paraview Template</text>
<text text-anchor="middle" x="424.38" y="-829.2" font-family="Times New Roman,serif" font-size="14.00">(curve_template.py)</text>
</g>
<!-- Paraview Template\n(curve_template.py)&#45;&gt;json2fortran.rb -->
<g id="edge26" class="edge">
<title>Paraview Template\n(curve_template.py)&#45;&gt;json2fortran.rb</title>
<path fill="none" stroke="black" d="M404.15,-821.69C395.5,-813.21 385.3,-803.22 376.12,-794.23"/>
<polygon fill="black" stroke="black" points="378.73,-791.88 369.13,-787.38 373.83,-796.88 378.73,-791.88"/>
</g>
<!-- ZOO JSON\n(zoo.json) -->
<g id="node4" class="node">
<title>ZOO JSON\n(zoo.json)</title>
<polygon fill="none" stroke="black" points="579.25,-863 505.5,-863 505.5,-822 585.25,-822 585.25,-857 579.25,-863"/>
<polyline fill="none" stroke="black" points="579.25,-863 579.25,-857"/>
<polyline fill="none" stroke="black" points="585.25,-857 579.25,-857"/>
<text text-anchor="middle" x="545.38" y="-845.7" font-family="Times New Roman,serif" font-size="14.00">ZOO JSON</text>
<text text-anchor="middle" x="545.38" y="-829.2" font-family="Times New Roman,serif" font-size="14.00">(zoo.json)</text>
</g>
<!-- ZOO JSON\n(zoo.json)&#45;&gt;json2fortran.rb -->
<g id="edge27" class="edge">
<title>ZOO JSON\n(zoo.json)&#45;&gt;json2fortran.rb</title>
<path fill="none" stroke="black" d="M505.04,-825.33C502.11,-824.2 499.2,-823.07 496.38,-822 468.02,-811.21 436.39,-799.67 409.84,-790.12"/>
<polygon fill="black" stroke="black" points="411.2,-786.89 400.6,-786.81 408.83,-793.48 411.2,-786.89"/>
</g>
<!-- ODE Solver Programs\n(curve_*.f90) -->
<g id="node7" class="node">
<title>ODE Solver Programs\n(curve_*.f90)</title>
<polygon fill="none" stroke="black" points="488.88,-714 485.88,-718 464.88,-718 461.88,-714 349.88,-714 349.88,-673 488.88,-673 488.88,-714"/>
<text text-anchor="middle" x="419.38" y="-696.7" font-family="Times New Roman,serif" font-size="14.00">ODE Solver Programs</text>
<text text-anchor="middle" x="419.38" y="-680.2" font-family="Times New Roman,serif" font-size="14.00">(curve_*.f90)</text>
</g>
<!-- json2fortran.rb&#45;&gt;ODE Solver Programs\n(curve_*.f90) -->
<g id="edge28" class="edge">
<title>json2fortran.rb&#45;&gt;ODE Solver Programs\n(curve_*.f90)</title>
<path fill="none" stroke="black" d="M366.73,-749.82C374.48,-741.68 383.94,-731.74 392.69,-722.54"/>
<polygon fill="black" stroke="black" points="395.05,-725.13 399.41,-715.48 389.98,-720.31 395.05,-725.13"/>
</g>
<!-- GNUplot Input\n(curve_*.gplt) -->
<g id="node8" class="node">
<title>GNUplot Input\n(curve_*.gplt)</title>
<polygon fill="none" stroke="black" points="331.62,-714 328.62,-718 307.62,-718 304.62,-714 233.12,-714 233.12,-673 331.62,-673 331.62,-714"/>
<text text-anchor="middle" x="282.38" y="-696.7" font-family="Times New Roman,serif" font-size="14.00">GNUplot Input</text>
<text text-anchor="middle" x="282.38" y="-680.2" font-family="Times New Roman,serif" font-size="14.00">(curve_*.gplt)</text>
</g>
<!-- json2fortran.rb&#45;&gt;GNUplot Input\n(curve_*.gplt) -->
<g id="edge29" class="edge">
<title>json2fortran.rb&#45;&gt;GNUplot Input\n(curve_*.gplt)</title>
<path fill="none" stroke="black" d="M334.26,-749.82C326.62,-741.68 317.3,-731.74 308.68,-722.54"/>
<polygon fill="black" stroke="black" points="311.45,-720.38 302.06,-715.49 306.35,-725.17 311.45,-720.38"/>
</g>
<!-- Paraview Batch\n(curve_batch_*.py) -->
<g id="node9" class="node">
<title>Paraview Batch\n(curve_batch_*.py)</title>
<polygon fill="none" stroke="black" points="215.25,-714 212.25,-718 191.25,-718 188.25,-714 93.5,-714 93.5,-673 215.25,-673 215.25,-714"/>
<text text-anchor="middle" x="154.38" y="-696.7" font-family="Times New Roman,serif" font-size="14.00">Paraview Batch</text>
<text text-anchor="middle" x="154.38" y="-680.2" font-family="Times New Roman,serif" font-size="14.00">(curve_batch_*.py)</text>
</g>
<!-- json2fortran.rb&#45;&gt;Paraview Batch\n(curve_batch_*.py) -->
<g id="edge30" class="edge">
<title>json2fortran.rb&#45;&gt;Paraview Batch\n(curve_batch_*.py)</title>
<path fill="none" stroke="black" d="M303.43,-749.63C278.13,-740.28 246.54,-728.59 218.96,-718.39"/>
<polygon fill="black" stroke="black" points="220.23,-715.13 209.63,-714.94 217.8,-721.69 220.23,-715.13"/>
</g>
<!-- Paraview Interactive\n(curve_*.py) -->
<g id="node11" class="node">
<title>Paraview Interactive\n(curve_*.py)</title>
<polygon fill="none" stroke="black" points="787.25,-714 784.25,-718 763.25,-718 760.25,-714 659.5,-714 659.5,-673 787.25,-673 787.25,-714"/>
<text text-anchor="middle" x="723.38" y="-696.7" font-family="Times New Roman,serif" font-size="14.00">Paraview Interactive</text>
<text text-anchor="middle" x="723.38" y="-680.2" font-family="Times New Roman,serif" font-size="14.00">(curve_*.py)</text>
</g>
<!-- json2fortran.rb&#45;&gt;Paraview Interactive\n(curve_*.py) -->
<g id="edge31" class="edge">
<title>json2fortran.rb&#45;&gt;Paraview Interactive\n(curve_*.py)</title>
<path fill="none" stroke="black" d="M399.21,-759.7C456.53,-750.83 554.63,-734.75 648.26,-714.38"/>
<polygon fill="black" stroke="black" points="648.86,-717.83 657.88,-712.26 647.36,-710.99 648.86,-717.83"/>
</g>
<!-- MRKISS\n(github.com/richmit/) -->
<g id="node6" class="node">
<title>MRKISS\n(github.com/richmit/)</title>
<polygon fill="none" stroke="black" points="641.62,-714 507.12,-714 507.12,-710 503.12,-710 503.12,-706 507.12,-706 507.12,-681 503.12,-681 503.12,-677 507.12,-677 507.12,-673 641.62,-673 641.62,-714"/>
<polyline fill="none" stroke="black" points="507.12,-710 511.12,-710 511.12,-706 507.12,-706"/>
<polyline fill="none" stroke="black" points="507.12,-681 511.12,-681 511.12,-677 507.12,-677"/>
<text text-anchor="middle" x="574.38" y="-696.7" font-family="Times New Roman,serif" font-size="14.00">MRKISS</text>
<text text-anchor="middle" x="574.38" y="-680.2" font-family="Times New Roman,serif" font-size="14.00">(github.com/richmit/)</text>
</g>
<!-- fortran compile/run -->
<g id="node12" class="node">
<title>fortran compile/run</title>
<polygon fill="none" stroke="black" points="480.62,-637 362.12,-637 358.12,-633 358.12,-601 476.62,-601 480.62,-605 480.62,-637"/>
<polyline fill="none" stroke="black" points="476.62,-633 358.12,-633"/>
<polyline fill="none" stroke="black" points="476.62,-633 476.62,-601"/>
<polyline fill="none" stroke="black" points="476.62,-633 480.62,-637"/>
<text text-anchor="middle" x="419.38" y="-613.95" font-family="Times New Roman,serif" font-size="14.00">fortran compile/run</text>
</g>
<!-- MRKISS\n(github.com/richmit/)&#45;&gt;fortran compile/run -->
<g id="edge1" class="edge">
<title>MRKISS\n(github.com/richmit/)&#45;&gt;fortran compile/run</title>
<path fill="none" stroke="black" d="M532.02,-672.69C511.85,-663.26 487.66,-651.94 466.87,-642.22"/>
<polygon fill="black" stroke="black" points="468.57,-639.15 458.03,-638.08 465.61,-645.49 468.57,-639.15"/>
</g>
<!-- ODE Solver Programs\n(curve_*.f90)&#45;&gt;fortran compile/run -->
<g id="edge2" class="edge">
<title>ODE Solver Programs\n(curve_*.f90)&#45;&gt;fortran compile/run</title>
<path fill="none" stroke="black" d="M419.38,-672.69C419.38,-665.25 419.38,-656.64 419.38,-648.57"/>
<polygon fill="black" stroke="black" points="422.88,-648.83 419.38,-638.83 415.88,-648.83 422.88,-648.83"/>
</g>
<!-- GNUplot -->
<g id="node13" class="node">
<title>GNUplot</title>
<polygon fill="none" stroke="black" points="318.5,-488 256.25,-488 252.25,-484 252.25,-452 314.5,-452 318.5,-456 318.5,-488"/>
<polyline fill="none" stroke="black" points="314.5,-484 252.25,-484"/>
<polyline fill="none" stroke="black" points="314.5,-484 314.5,-452"/>
<polyline fill="none" stroke="black" points="314.5,-484 318.5,-488"/>
<text text-anchor="middle" x="285.38" y="-464.95" font-family="Times New Roman,serif" font-size="14.00">GNUplot</text>
</g>
<!-- GNUplot Input\n(curve_*.gplt)&#45;&gt;GNUplot -->
<g id="edge5" class="edge">
<title>GNUplot Input\n(curve_*.gplt)&#45;&gt;GNUplot</title>
<path fill="none" stroke="black" d="M282.64,-672.84C283.17,-633.66 284.36,-545.67 284.98,-499.9"/>
<polygon fill="black" stroke="black" points="288.48,-500 285.12,-489.96 281.48,-499.91 288.48,-500"/>
</g>
<!-- pvpython -->
<g id="node18" class="node">
<title>pvpython</title>
<polygon fill="none" stroke="black" points="287.88,-336.5 224.88,-336.5 220.88,-332.5 220.88,-300.5 283.88,-300.5 287.88,-304.5 287.88,-336.5"/>
<polyline fill="none" stroke="black" points="283.88,-332.5 220.88,-332.5"/>
<polyline fill="none" stroke="black" points="283.88,-332.5 283.88,-300.5"/>
<polyline fill="none" stroke="black" points="283.88,-332.5 287.88,-336.5"/>
<text text-anchor="middle" x="254.38" y="-313.45" font-family="Times New Roman,serif" font-size="14.00">pvpython</text>
</g>
<!-- Paraview Batch\n(curve_batch_*.py)&#45;&gt;pvpython -->
<g id="edge14" class="edge">
<title>Paraview Batch\n(curve_batch_*.py)&#45;&gt;pvpython</title>
<path fill="none" stroke="black" d="M159.92,-672.71C167.29,-644.65 179.38,-591.58 179.38,-545.5 179.38,-545.5 179.38,-545.5 179.38,-469 179.38,-421.78 209.64,-374.23 231.72,-345.82"/>
<polygon fill="black" stroke="black" points="234.36,-348.11 237.89,-338.12 228.9,-343.73 234.36,-348.11"/>
</g>
<!-- Paraview Glance\n(ParaViewGlance.html) -->
<g id="node10" class="node">
<title>Paraview Glance\n(ParaViewGlance.html)</title>
<polygon fill="none" stroke="black" points="196.88,-339 57.88,-339 57.88,-298 202.88,-298 202.88,-333 196.88,-339"/>
<polyline fill="none" stroke="black" points="196.88,-339 196.88,-333"/>
<polyline fill="none" stroke="black" points="202.88,-333 196.88,-333"/>
<text text-anchor="middle" x="130.38" y="-321.7" font-family="Times New Roman,serif" font-size="14.00">Paraview Glance</text>
<text text-anchor="middle" x="130.38" y="-305.2" font-family="Times New Roman,serif" font-size="14.00">(ParaViewGlance.html)</text>
</g>
<!-- Paraview Glance\n(ParaViewGlance.html)&#45;&gt;pvpython -->
<g id="edge12" class="edge">
<title>Paraview Glance\n(ParaViewGlance.html)&#45;&gt;pvpython</title>
<path fill="none" stroke="black" d="M203.03,-318.5C205.15,-318.5 207.26,-318.5 209.37,-318.5"/>
<polygon fill="black" stroke="black" points="209.17,-322 219.17,-318.5 209.17,-315 209.17,-322"/>
</g>
<!-- Paraview -->
<g id="node26" class="node">
<title>Paraview</title>
<polygon fill="none" stroke="black" points="606.5,-36 544.25,-36 540.25,-32 540.25,0 602.5,0 606.5,-4 606.5,-36"/>
<polyline fill="none" stroke="black" points="602.5,-32 540.25,-32"/>
<polyline fill="none" stroke="black" points="602.5,-32 602.5,0"/>
<polyline fill="none" stroke="black" points="602.5,-32 606.5,-36"/>
<text text-anchor="middle" x="573.38" y="-12.95" font-family="Times New Roman,serif" font-size="14.00">Paraview</text>
</g>
<!-- Paraview Interactive\n(curve_*.py)&#45;&gt;Paraview -->
<g id="edge20" class="edge">
<title>Paraview Interactive\n(curve_*.py)&#45;&gt;Paraview</title>
<path fill="none" stroke="black" d="M698.9,-672.67C669.87,-646.76 625.38,-598.41 625.38,-545.5 625.38,-545.5 625.38,-545.5 625.38,-166 625.38,-122.12 604.53,-74.87 589.23,-46.12"/>
<polygon fill="black" stroke="black" points="592.51,-44.81 584.63,-37.72 586.37,-48.17 592.51,-44.81"/>
</g>
<!-- CSV Data Files\n(curve_*.csv) -->
<g id="node14" class="node">
<title>CSV Data Files\n(curve_*.csv)</title>
<polygon fill="none" stroke="black" points="469.12,-565 466.12,-569 445.12,-569 442.12,-565 367.62,-565 367.62,-524 469.12,-524 469.12,-565"/>
<text text-anchor="middle" x="418.38" y="-547.7" font-family="Times New Roman,serif" font-size="14.00">CSV Data Files</text>
<text text-anchor="middle" x="418.38" y="-531.2" font-family="Times New Roman,serif" font-size="14.00">(curve_*.csv)</text>
</g>
<!-- fortran compile/run&#45;&gt;CSV Data Files\n(curve_*.csv) -->
<g id="edge3" class="edge">
<title>fortran compile/run&#45;&gt;CSV Data Files\n(curve_*.csv)</title>
<path fill="none" stroke="black" d="M419.14,-600.82C419.04,-593.59 418.92,-584.95 418.8,-576.66"/>
<polygon fill="black" stroke="black" points="422.31,-576.85 418.67,-566.89 415.31,-576.94 422.31,-576.85"/>
</g>
<!-- GNUplot Images\n(curve_gp_*.png) -->
<g id="node15" class="node">
<title>GNUplot Images\n(curve_gp_*.png)</title>
<polygon fill="none" stroke="black" points="341.75,-416 338.75,-420 317.75,-420 314.75,-416 229,-416 229,-375 341.75,-375 341.75,-416"/>
<text text-anchor="middle" x="285.38" y="-398.7" font-family="Times New Roman,serif" font-size="14.00">GNUplot Images</text>
<text text-anchor="middle" x="285.38" y="-382.2" font-family="Times New Roman,serif" font-size="14.00">(curve_gp_*.png)</text>
</g>
<!-- GNUplot&#45;&gt;GNUplot Images\n(curve_gp_*.png) -->
<g id="edge4" class="edge">
<title>GNUplot&#45;&gt;GNUplot Images\n(curve_gp_*.png)</title>
<path fill="none" stroke="black" d="M285.38,-451.82C285.38,-444.59 285.38,-435.95 285.38,-427.66"/>
<polygon fill="black" stroke="black" points="288.88,-427.89 285.38,-417.89 281.88,-427.89 288.88,-427.89"/>
</g>
<!-- CSV Data Files\n(curve_*.csv)&#45;&gt;GNUplot -->
<g id="edge7" class="edge">
<title>CSV Data Files\n(curve_*.csv)&#45;&gt;GNUplot</title>
<path fill="none" stroke="black" d="M382.03,-523.69C365.06,-514.44 344.76,-503.37 327.16,-493.78"/>
<polygon fill="black" stroke="black" points="328.93,-490.76 318.48,-489.04 325.58,-496.9 328.93,-490.76"/>
</g>
<!-- spaceCurveCSVtoVTU.rb -->
<g id="node16" class="node">
<title>spaceCurveCSVtoVTU.rb</title>
<polygon fill="none" stroke="black" points="497.62,-488 343.12,-488 339.12,-484 339.12,-452 493.62,-452 497.62,-456 497.62,-488"/>
<polyline fill="none" stroke="black" points="493.62,-484 339.12,-484"/>
<polyline fill="none" stroke="black" points="493.62,-484 493.62,-452"/>
<polyline fill="none" stroke="black" points="493.62,-484 497.62,-488"/>
<text text-anchor="middle" x="418.38" y="-464.95" font-family="Times New Roman,serif" font-size="14.00">spaceCurveCSVtoVTU.rb</text>
</g>
<!-- CSV Data Files\n(curve_*.csv)&#45;&gt;spaceCurveCSVtoVTU.rb -->
<g id="edge6" class="edge">
<title>CSV Data Files\n(curve_*.csv)&#45;&gt;spaceCurveCSVtoVTU.rb</title>
<path fill="none" stroke="black" d="M418.38,-523.69C418.38,-516.25 418.38,-507.64 418.38,-499.57"/>
<polygon fill="black" stroke="black" points="421.88,-499.83 418.38,-489.83 414.88,-499.83 421.88,-499.83"/>
</g>
<!-- VTU Data Files\n(curve_*.vtu) -->
<g id="node17" class="node">
<title>VTU Data Files\n(curve_*.vtu)</title>
<polygon fill="none" stroke="black" points="469.88,-416 466.88,-420 445.88,-420 442.88,-416 366.88,-416 366.88,-375 469.88,-375 469.88,-416"/>
<text text-anchor="middle" x="418.38" y="-398.7" font-family="Times New Roman,serif" font-size="14.00">VTU Data Files</text>
<text text-anchor="middle" x="418.38" y="-382.2" font-family="Times New Roman,serif" font-size="14.00">(curve_*.vtu)</text>
</g>
<!-- spaceCurveCSVtoVTU.rb&#45;&gt;VTU Data Files\n(curve_*.vtu) -->
<g id="edge8" class="edge">
<title>spaceCurveCSVtoVTU.rb&#45;&gt;VTU Data Files\n(curve_*.vtu)</title>
<path fill="none" stroke="black" d="M418.38,-451.82C418.38,-444.59 418.38,-435.95 418.38,-427.66"/>
<polygon fill="black" stroke="black" points="421.88,-427.89 418.38,-417.89 414.88,-427.89 421.88,-427.89"/>
</g>
<!-- VTU Data Files\n(curve_*.vtu)&#45;&gt;pvpython -->
<g id="edge13" class="edge">
<title>VTU Data Files\n(curve_*.vtu)&#45;&gt;pvpython</title>
<path fill="none" stroke="black" d="M374.86,-374.6C351.32,-363.84 322.32,-350.57 298.66,-339.75"/>
<polygon fill="black" stroke="black" points="300.14,-336.58 289.59,-335.6 297.23,-342.95 300.14,-336.58"/>
</g>
<!-- VTU Data Files\n(curve_*.vtu)&#45;&gt;Paraview -->
<g id="edge21" class="edge">
<title>VTU Data Files\n(curve_*.vtu)&#45;&gt;Paraview</title>
<path fill="none" stroke="black" d="M429.92,-374.59C445.24,-346.24 470.38,-292.14 470.38,-242.5 470.38,-242.5 470.38,-242.5 470.38,-166 470.38,-115.66 511.39,-70.31 541.66,-43.7"/>
<polygon fill="black" stroke="black" points="543.76,-46.51 549.11,-37.37 539.22,-41.18 543.76,-46.51"/>
</g>
<!-- Glance HTML\n(curve_*.html) -->
<g id="node19" class="node">
<title>Glance HTML\n(curve_*.html)</title>
<polygon fill="none" stroke="black" points="303.25,-262 300.25,-266 279.25,-266 276.25,-262 205.5,-262 205.5,-221 303.25,-221 303.25,-262"/>
<text text-anchor="middle" x="254.38" y="-244.7" font-family="Times New Roman,serif" font-size="14.00">Glance HTML</text>
<text text-anchor="middle" x="254.38" y="-228.2" font-family="Times New Roman,serif" font-size="14.00">(curve_*.html)</text>
</g>
<!-- pvpython&#45;&gt;Glance HTML\n(curve_*.html) -->
<g id="edge9" class="edge">
<title>pvpython&#45;&gt;Glance HTML\n(curve_*.html)</title>
<path fill="none" stroke="black" d="M254.38,-300.1C254.38,-292.28 254.38,-282.8 254.38,-273.81"/>
<polygon fill="black" stroke="black" points="257.88,-273.96 254.38,-263.96 250.88,-273.96 257.88,-273.96"/>
</g>
<!-- Glance DATA\n(curve_*.vtkjs) -->
<g id="node20" class="node">
<title>Glance DATA\n(curve_*.vtkjs)</title>
<polygon fill="none" stroke="black" points="419.62,-262 416.62,-266 395.62,-266 392.62,-262 321.12,-262 321.12,-221 419.62,-221 419.62,-262"/>
<text text-anchor="middle" x="370.38" y="-244.7" font-family="Times New Roman,serif" font-size="14.00">Glance DATA</text>
<text text-anchor="middle" x="370.38" y="-228.2" font-family="Times New Roman,serif" font-size="14.00">(curve_*.vtkjs)</text>
</g>
<!-- pvpython&#45;&gt;Glance DATA\n(curve_*.vtkjs) -->
<g id="edge10" class="edge">
<title>pvpython&#45;&gt;Glance DATA\n(curve_*.vtkjs)</title>
<path fill="none" stroke="black" d="M281.28,-300.1C295.83,-290.7 314.08,-278.9 330.27,-268.43"/>
<polygon fill="black" stroke="black" points="331.75,-271.64 338.25,-263.27 327.95,-265.76 331.75,-271.64"/>
</g>
<!-- Glance Preview\n(curve_pv_*.png) -->
<g id="node21" class="node">
<title>Glance Preview\n(curve_pv_*.png)</title>
<polygon fill="none" stroke="black" points="112.75,-262 109.75,-266 88.75,-266 85.75,-262 0,-262 0,-221 112.75,-221 112.75,-262"/>
<text text-anchor="middle" x="56.38" y="-244.7" font-family="Times New Roman,serif" font-size="14.00">Glance Preview</text>
<text text-anchor="middle" x="56.38" y="-228.2" font-family="Times New Roman,serif" font-size="14.00">(curve_pv_*.png)</text>
</g>
<!-- pvpython&#45;&gt;Glance Preview\n(curve_pv_*.png) -->
<g id="edge11" class="edge">
<title>pvpython&#45;&gt;Glance Preview\n(curve_pv_*.png)</title>
<path fill="none" stroke="black" d="M220.69,-301.91C217.55,-300.55 214.41,-299.23 211.38,-298 182.96,-286.49 151.14,-274.88 123.77,-265.28"/>
<polygon fill="black" stroke="black" points="125.14,-262.05 114.55,-262.07 122.84,-268.66 125.14,-262.05"/>
</g>
<!-- Emacs -->
<g id="node24" class="node">
<title>Emacs</title>
<polygon fill="none" stroke="black" points="233.38,-185 183.38,-185 179.38,-181 179.38,-149 229.38,-149 233.38,-153 233.38,-185"/>
<polyline fill="none" stroke="black" points="229.38,-181 179.38,-181"/>
<polyline fill="none" stroke="black" points="229.38,-181 229.38,-149"/>
<polyline fill="none" stroke="black" points="229.38,-181 233.38,-185"/>
<text text-anchor="middle" x="206.38" y="-161.95" font-family="Times New Roman,serif" font-size="14.00">Emacs</text>
</g>
<!-- Glance HTML\n(curve_*.html)&#45;&gt;Emacs -->
<g id="edge17" class="edge">
<title>Glance HTML\n(curve_*.html)&#45;&gt;Emacs</title>
<path fill="none" stroke="black" d="M241.26,-220.69C235.99,-212.73 229.84,-203.44 224.18,-194.89"/>
<polygon fill="black" stroke="black" points="227.12,-192.99 218.68,-186.58 221.28,-196.85 227.12,-192.99"/>
</g>
<!-- Glance DATA\n(curve_*.vtkjs)&#45;&gt;Emacs -->
<g id="edge18" class="edge">
<title>Glance DATA\n(curve_*.vtkjs)&#45;&gt;Emacs</title>
<path fill="none" stroke="black" d="M325.56,-220.69C299.95,-209.37 268.2,-195.33 243.91,-184.59"/>
<polygon fill="black" stroke="black" points="245.61,-181.52 235.05,-180.68 242.78,-187.92 245.61,-181.52"/>
</g>
<!-- Glance Preview\n(curve_pv_*.png)&#45;&gt;Emacs -->
<g id="edge19" class="edge">
<title>Glance Preview\n(curve_pv_*.png)&#45;&gt;Emacs</title>
<path fill="none" stroke="black" d="M97.36,-220.69C119.73,-209.88 147.21,-196.6 168.98,-186.07"/>
<polygon fill="black" stroke="black" points="170.32,-189.31 177.8,-181.81 167.28,-183.01 170.32,-189.31"/>
</g>
<!-- Browser -->
<g id="node22" class="node">
<title>Browser</title>
<polygon fill="none" stroke="black" points="237.25,-36 179.5,-36 175.5,-32 175.5,0 233.25,0 237.25,-4 237.25,-36"/>
<polyline fill="none" stroke="black" points="233.25,-32 175.5,-32"/>
<polyline fill="none" stroke="black" points="233.25,-32 233.25,0"/>
<polyline fill="none" stroke="black" points="233.25,-32 237.25,-36"/>
<text text-anchor="middle" x="206.38" y="-12.95" font-family="Times New Roman,serif" font-size="14.00">Browser</text>
</g>
<!-- org&#45;mode -->
<g id="node23" class="node">
<title>org&#45;mode</title>
<polygon fill="none" stroke="black" points="161,-185 91.75,-185 91.75,-181 87.75,-181 87.75,-177 91.75,-177 91.75,-157 87.75,-157 87.75,-153 91.75,-153 91.75,-149 161,-149 161,-185"/>
<polyline fill="none" stroke="black" points="91.75,-181 95.75,-181 95.75,-177 91.75,-177"/>
<polyline fill="none" stroke="black" points="91.75,-157 95.75,-157 95.75,-153 91.75,-153"/>
<text text-anchor="middle" x="126.38" y="-161.95" font-family="Times New Roman,serif" font-size="14.00">org&#45;mode</text>
</g>
<!-- org&#45;mode&#45;&gt;Emacs -->
<g id="edge15" class="edge">
<title>org&#45;mode&#45;&gt;Emacs</title>
<path fill="none" stroke="black" d="M161.38,-167C163.48,-167 165.59,-167 167.69,-167"/>
<polygon fill="black" stroke="black" points="167.44,-170.5 177.44,-167 167.44,-163.5 167.44,-170.5"/>
</g>
<!-- ZOO Web Page\n(index.html) -->
<g id="node27" class="node">
<title>ZOO Web Page\n(index.html)</title>
<polygon fill="none" stroke="black" points="251.12,-113 155.62,-113 155.62,-72 257.12,-72 257.12,-107 251.12,-113"/>
<polyline fill="none" stroke="black" points="251.12,-113 251.12,-107"/>
<polyline fill="none" stroke="black" points="257.12,-107 251.12,-107"/>
<text text-anchor="middle" x="206.38" y="-95.7" font-family="Times New Roman,serif" font-size="14.00">ZOO Web Page</text>
<text text-anchor="middle" x="206.38" y="-79.2" font-family="Times New Roman,serif" font-size="14.00">(index.html)</text>
</g>
<!-- Emacs&#45;&gt;ZOO Web Page\n(index.html) -->
<g id="edge22" class="edge">
<title>Emacs&#45;&gt;ZOO Web Page\n(index.html)</title>
<path fill="none" stroke="black" d="M206.38,-148.82C206.38,-141.59 206.38,-132.95 206.38,-124.66"/>
<polygon fill="black" stroke="black" points="209.88,-124.89 206.38,-114.89 202.88,-124.89 209.88,-124.89"/>
</g>
<!-- dev.org -->
<g id="node25" class="node">
<title>dev.org</title>
<polygon fill="none" stroke="black" points="181.62,-259.5 131.12,-259.5 131.12,-223.5 187.62,-223.5 187.62,-253.5 181.62,-259.5"/>
<polyline fill="none" stroke="black" points="181.62,-259.5 181.62,-253.5"/>
<polyline fill="none" stroke="black" points="187.62,-253.5 181.62,-253.5"/>
<text text-anchor="middle" x="159.38" y="-236.45" font-family="Times New Roman,serif" font-size="14.00">dev.org</text>
</g>
<!-- dev.org&#45;&gt;Emacs -->
<g id="edge16" class="edge">
<title>dev.org&#45;&gt;Emacs</title>
<path fill="none" stroke="black" d="M170.51,-223.32C176.07,-214.74 182.93,-204.17 189.14,-194.58"/>
<polygon fill="black" stroke="black" points="191.99,-196.62 194.49,-186.33 186.12,-192.82 191.99,-196.62"/>
</g>
<!-- ZOO Web Page\n(index.html)&#45;&gt;Browser -->
<g id="edge23" class="edge">
<title>ZOO Web Page\n(index.html)&#45;&gt;Browser</title>
<path fill="none" stroke="black" d="M206.38,-71.69C206.38,-64.25 206.38,-55.64 206.38,-47.57"/>
<polygon fill="black" stroke="black" points="209.88,-47.83 206.38,-37.83 202.88,-47.83 209.88,-47.83"/>
</g>
</g>
</svg>
