<?xml version="1.0" encoding="UTF-8" standalone="no"?>
<!DOCTYPE svg PUBLIC "-//W3C//DTD SVG 1.1//EN"
 "http://www.w3.org/Graphics/SVG/1.1/DTD/svg11.dtd">
<!-- Generated by graphviz version 12.2.1 (0)
 -->
<!-- Pages: 1 -->
<svg width="806pt" height="871pt"
 viewBox="0.00 0.00 806.25 871.00" xmlns="http://www.w3.org/2000/svg" xmlns:xlink="http://www.w3.org/1999/xlink">
<g id="graph0" class="graph" transform="scale(1 1) rotate(0) translate(4 867)">
<polygon fill="white" stroke="none" points="-4,4 -4,-867 802.25,-867 802.25,4 -4,4"/>
<!-- ODE Solver Template\n(curve_template.f90) -->
<g id="node1" class="node">
<title>ODE Solver Template\n(curve_template.f90)</title>
<polygon fill="none" stroke="black" points="196.75,-863 66,-863 66,-822 202.75,-822 202.75,-857 196.75,-863"/>
<polyline fill="none" stroke="black" points="196.75,-863 196.75,-857"/>
<polyline fill="none" stroke="black" points="202.75,-857 196.75,-857"/>
<text text-anchor="middle" x="134.38" y="-845.7" font-family="Times New Roman,serif" font-size="14.00">ODE Solver Template</text>
<text text-anchor="middle" x="134.38" y="-829.2" font-family="Times New Roman,serif" font-size="14.00">(curve_template.f90)</text>
</g>
<!-- json2fortran.rb -->
<g id="node5" class="node">
<title>json2fortran.rb</title>
<polygon fill="none" stroke="black" points="409.88,-786 316.88,-786 312.88,-782 312.88,-750 405.88,-750 409.88,-754 409.88,-786"/>
<polyline fill="none" stroke="black" points="405.88,-782 312.88,-782"/>
<polyline fill="none" stroke="black" points="405.88,-782 405.88,-750"/>
<polyline fill="none" stroke="black" points="405.88,-782 409.88,-786"/>
<text text-anchor="middle" x="361.38" y="-762.95" font-family="Times New Roman,serif" font-size="14.00">json2fortran.rb</text>
</g>
<!-- ODE Solver Template\n(curve_template.f90)&#45;&gt;json2fortran.rb -->
<g id="edge24" class="edge">
<title>ODE Solver Template\n(curve_template.f90)&#45;&gt;json2fortran.rb</title>
<path fill="none" stroke="black" d="M196.7,-821.59C229.49,-811.12 269.47,-798.35 301.83,-788.02"/>
<polygon fill="black" stroke="black" points="302.59,-791.45 311.05,-785.07 300.46,-784.78 302.59,-791.45"/>
</g>
<!-- GNUplot Template\n(curve_template.gplt) -->
<g id="node2" class="node">
<title>GNUplot Template\n(curve_template.gplt)</title>
<polygon fill="none" stroke="black" points="348.25,-863 220.5,-863 220.5,-822 354.25,-822 354.25,-857 348.25,-863"/>
<polyline fill="none" stroke="black" points="348.25,-863 348.25,-857"/>
<polyline fill="none" stroke="black" points="354.25,-857 348.25,-857"/>
<text text-anchor="middle" x="287.38" y="-845.7" font-family="Times New Roman,serif" font-size="14.00">GNUplot Template</text>
<text text-anchor="middle" x="287.38" y="-829.2" font-family="Times New Roman,serif" font-size="14.00">(curve_template.gplt)</text>
</g>
<!-- GNUplot Template\n(curve_template.gplt)&#45;&gt;json2fortran.rb -->
<g id="edge25" class="edge">
<title>GNUplot Template\n(curve_template.gplt)&#45;&gt;json2fortran.rb</title>
<path fill="none" stroke="black" d="M307.6,-821.69C316.25,-813.21 326.45,-803.22 335.63,-794.23"/>
<polygon fill="black" stroke="black" points="337.92,-796.88 342.62,-787.38 333.02,-791.88 337.92,-796.88"/>
</g>
<!-- Paraview Template\n(curve_template.py) -->
<g id="node3" class="node">
<title>Paraview Template\n(curve_template.py)</title>
<polygon fill="none" stroke="black" points="492.5,-863 372.25,-863 372.25,-822 498.5,-822 498.5,-857 492.5,-863"/>
<polyline fill="none" stroke="black" points="492.5,-863 492.5,-857"/>
<polyline fill="none" stroke="black" points="498.5,-857 492.5,-857"/>
<text text-anchor="middle" x="435.38" y="-845.7" font-family="Times New Roman,serif" font-size="14.00">Paraview Template</text>
<text text-anchor="middle" x="435.38" y="-829.2" font-family="Times New Roman,serif" font-size="14.00">(curve_template.py)</text>
</g>
<!-- Paraview Template\n(curve_template.py)&#45;&gt;json2fortran.rb -->
<g id="edge26" class="edge">
<title>Paraview Template\n(curve_template.py)&#45;&gt;json2fortran.rb</title>
<path fill="none" stroke="black" d="M415.15,-821.69C406.5,-813.21 396.3,-803.22 387.12,-794.23"/>
<polygon fill="black" stroke="black" points="389.73,-791.88 380.13,-787.38 384.83,-796.88 389.73,-791.88"/>
</g>
<!-- ZOO JSON\n(zoo.json) -->
<g id="node4" class="node">
<title>ZOO JSON\n(zoo.json)</title>
<polygon fill="none" stroke="black" points="590.25,-863 516.5,-863 516.5,-822 596.25,-822 596.25,-857 590.25,-863"/>
<polyline fill="none" stroke="black" points="590.25,-863 590.25,-857"/>
<polyline fill="none" stroke="black" points="596.25,-857 590.25,-857"/>
<text text-anchor="middle" x="556.38" y="-845.7" font-family="Times New Roman,serif" font-size="14.00">ZOO JSON</text>
<text text-anchor="middle" x="556.38" y="-829.2" font-family="Times New Roman,serif" font-size="14.00">(zoo.json)</text>
</g>
<!-- ZOO JSON\n(zoo.json)&#45;&gt;json2fortran.rb -->
<g id="edge27" class="edge">
<title>ZOO JSON\n(zoo.json)&#45;&gt;json2fortran.rb</title>
<path fill="none" stroke="black" d="M516.04,-825.33C513.11,-824.2 510.2,-823.07 507.38,-822 479.02,-811.21 447.39,-799.67 420.84,-790.12"/>
<polygon fill="black" stroke="black" points="422.2,-786.89 411.6,-786.81 419.83,-793.48 422.2,-786.89"/>
</g>
<!-- ODE Solver Programs\n(curve_*.f90) -->
<g id="node7" class="node">
<title>ODE Solver Programs\n(curve_*.f90)</title>
<polygon fill="none" stroke="black" points="499.88,-714 496.88,-718 475.88,-718 472.88,-714 360.88,-714 360.88,-673 499.88,-673 499.88,-714"/>
<text text-anchor="middle" x="430.38" y="-696.7" font-family="Times New Roman,serif" font-size="14.00">ODE Solver Programs</text>
<text text-anchor="middle" x="430.38" y="-680.2" font-family="Times New Roman,serif" font-size="14.00">(curve_*.f90)</text>
</g>
<!-- json2fortran.rb&#45;&gt;ODE Solver Programs\n(curve_*.f90) -->
<g id="edge28" class="edge">
<title>json2fortran.rb&#45;&gt;ODE Solver Programs\n(curve_*.f90)</title>
<path fill="none" stroke="black" d="M377.73,-749.82C385.48,-741.68 394.94,-731.74 403.69,-722.54"/>
<polygon fill="black" stroke="black" points="406.05,-725.13 410.41,-715.48 400.98,-720.31 406.05,-725.13"/>
</g>
<!-- GNUplot Input\n(curve_*.gplt) -->
<g id="node8" class="node">
<title>GNUplot Input\n(curve_*.gplt)</title>
<polygon fill="none" stroke="black" points="342.62,-714 339.62,-718 318.62,-718 315.62,-714 244.12,-714 244.12,-673 342.62,-673 342.62,-714"/>
<text text-anchor="middle" x="293.38" y="-696.7" font-family="Times New Roman,serif" font-size="14.00">GNUplot Input</text>
<text text-anchor="middle" x="293.38" y="-680.2" font-family="Times New Roman,serif" font-size="14.00">(curve_*.gplt)</text>
</g>
<!-- json2fortran.rb&#45;&gt;GNUplot Input\n(curve_*.gplt) -->
<g id="edge29" class="edge">
<title>json2fortran.rb&#45;&gt;GNUplot Input\n(curve_*.gplt)</title>
<path fill="none" stroke="black" d="M345.26,-749.82C337.62,-741.68 328.3,-731.74 319.68,-722.54"/>
<polygon fill="black" stroke="black" points="322.45,-720.38 313.06,-715.49 317.35,-725.17 322.45,-720.38"/>
</g>
<!-- Paraview Batch\n(curve_batch_*.py) -->
<g id="node9" class="node">
<title>Paraview Batch\n(curve_batch_*.py)</title>
<polygon fill="none" stroke="black" points="226.25,-714 223.25,-718 202.25,-718 199.25,-714 104.5,-714 104.5,-673 226.25,-673 226.25,-714"/>
<text text-anchor="middle" x="165.38" y="-696.7" font-family="Times New Roman,serif" font-size="14.00">Paraview Batch</text>
<text text-anchor="middle" x="165.38" y="-680.2" font-family="Times New Roman,serif" font-size="14.00">(curve_batch_*.py)</text>
</g>
<!-- json2fortran.rb&#45;&gt;Paraview Batch\n(curve_batch_*.py) -->
<g id="edge30" class="edge">
<title>json2fortran.rb&#45;&gt;Paraview Batch\n(curve_batch_*.py)</title>
<path fill="none" stroke="black" d="M314.43,-749.63C289.13,-740.28 257.54,-728.59 229.96,-718.39"/>
<polygon fill="black" stroke="black" points="231.23,-715.13 220.63,-714.94 228.8,-721.69 231.23,-715.13"/>
</g>
<!-- Paraview Interactive\n(curve_*.py) -->
<g id="node11" class="node">
<title>Paraview Interactive\n(curve_*.py)</title>
<polygon fill="none" stroke="black" points="798.25,-714 795.25,-718 774.25,-718 771.25,-714 670.5,-714 670.5,-673 798.25,-673 798.25,-714"/>
<text text-anchor="middle" x="734.38" y="-696.7" font-family="Times New Roman,serif" font-size="14.00">Paraview Interactive</text>
<text text-anchor="middle" x="734.38" y="-680.2" font-family="Times New Roman,serif" font-size="14.00">(curve_*.py)</text>
</g>
<!-- json2fortran.rb&#45;&gt;Paraview Interactive\n(curve_*.py) -->
<g id="edge31" class="edge">
<title>json2fortran.rb&#45;&gt;Paraview Interactive\n(curve_*.py)</title>
<path fill="none" stroke="black" d="M410.21,-759.7C467.53,-750.83 565.63,-734.75 659.26,-714.38"/>
<polygon fill="black" stroke="black" points="659.86,-717.83 668.88,-712.26 658.36,-710.99 659.86,-717.83"/>
</g>
<!-- MRKISS\n(github.com/richmit/) -->
<g id="node6" class="node">
<title>MRKISS\n(github.com/richmit/)</title>
<polygon fill="none" stroke="black" points="652.62,-714 518.12,-714 518.12,-710 514.12,-710 514.12,-706 518.12,-706 518.12,-681 514.12,-681 514.12,-677 518.12,-677 518.12,-673 652.62,-673 652.62,-714"/>
<polyline fill="none" stroke="black" points="518.12,-710 522.12,-710 522.12,-706 518.12,-706"/>
<polyline fill="none" stroke="black" points="518.12,-681 522.12,-681 522.12,-677 518.12,-677"/>
<text text-anchor="middle" x="585.38" y="-696.7" font-family="Times New Roman,serif" font-size="14.00">MRKISS</text>
<text text-anchor="middle" x="585.38" y="-680.2" font-family="Times New Roman,serif" font-size="14.00">(github.com/richmit/)</text>
</g>
<!-- fortran compile/run -->
<g id="node12" class="node">
<title>fortran compile/run</title>
<polygon fill="none" stroke="black" points="491.62,-637 373.12,-637 369.12,-633 369.12,-601 487.62,-601 491.62,-605 491.62,-637"/>
<polyline fill="none" stroke="black" points="487.62,-633 369.12,-633"/>
<polyline fill="none" stroke="black" points="487.62,-633 487.62,-601"/>
<polyline fill="none" stroke="black" points="487.62,-633 491.62,-637"/>
<text text-anchor="middle" x="430.38" y="-613.95" font-family="Times New Roman,serif" font-size="14.00">fortran compile/run</text>
</g>
<!-- MRKISS\n(github.com/richmit/)&#45;&gt;fortran compile/run -->
<g id="edge1" class="edge">
<title>MRKISS\n(github.com/richmit/)&#45;&gt;fortran compile/run</title>
<path fill="none" stroke="black" d="M543.02,-672.69C522.85,-663.26 498.66,-651.94 477.87,-642.22"/>
<polygon fill="black" stroke="black" points="479.57,-639.15 469.03,-638.08 476.61,-645.49 479.57,-639.15"/>
</g>
<!-- ODE Solver Programs\n(curve_*.f90)&#45;&gt;fortran compile/run -->
<g id="edge2" class="edge">
<title>ODE Solver Programs\n(curve_*.f90)&#45;&gt;fortran compile/run</title>
<path fill="none" stroke="black" d="M430.38,-672.69C430.38,-665.25 430.38,-656.64 430.38,-648.57"/>
<polygon fill="black" stroke="black" points="433.88,-648.83 430.38,-638.83 426.88,-648.83 433.88,-648.83"/>
</g>
<!-- GNUplot -->
<g id="node13" class="node">
<title>GNUplot</title>
<polygon fill="none" stroke="black" points="329.5,-488 267.25,-488 263.25,-484 263.25,-452 325.5,-452 329.5,-456 329.5,-488"/>
<polyline fill="none" stroke="black" points="325.5,-484 263.25,-484"/>
<polyline fill="none" stroke="black" points="325.5,-484 325.5,-452"/>
<polyline fill="none" stroke="black" points="325.5,-484 329.5,-488"/>
<text text-anchor="middle" x="296.38" y="-464.95" font-family="Times New Roman,serif" font-size="14.00">GNUplot</text>
</g>
<!-- GNUplot Input\n(curve_*.gplt)&#45;&gt;GNUplot -->
<g id="edge5" class="edge">
<title>GNUplot Input\n(curve_*.gplt)&#45;&gt;GNUplot</title>
<path fill="none" stroke="black" d="M293.64,-672.84C294.17,-633.66 295.36,-545.67 295.98,-499.9"/>
<polygon fill="black" stroke="black" points="299.48,-500 296.12,-489.96 292.48,-499.91 299.48,-500"/>
</g>
<!-- pvpython -->
<g id="node18" class="node">
<title>pvpython</title>
<polygon fill="none" stroke="black" points="298.88,-336.5 235.88,-336.5 231.88,-332.5 231.88,-300.5 294.88,-300.5 298.88,-304.5 298.88,-336.5"/>
<polyline fill="none" stroke="black" points="294.88,-332.5 231.88,-332.5"/>
<polyline fill="none" stroke="black" points="294.88,-332.5 294.88,-300.5"/>
<polyline fill="none" stroke="black" points="294.88,-332.5 298.88,-336.5"/>
<text text-anchor="middle" x="265.38" y="-313.45" font-family="Times New Roman,serif" font-size="14.00">pvpython</text>
</g>
<!-- Paraview Batch\n(curve_batch_*.py)&#45;&gt;pvpython -->
<g id="edge14" class="edge">
<title>Paraview Batch\n(curve_batch_*.py)&#45;&gt;pvpython</title>
<path fill="none" stroke="black" d="M170.92,-672.71C178.29,-644.65 190.38,-591.58 190.38,-545.5 190.38,-545.5 190.38,-545.5 190.38,-469 190.38,-421.78 220.64,-374.23 242.72,-345.82"/>
<polygon fill="black" stroke="black" points="245.36,-348.11 248.89,-338.12 239.9,-343.73 245.36,-348.11"/>
</g>
<!-- Paraview Glance\n(ParaViewGlance.html) -->
<g id="node10" class="node">
<title>Paraview Glance\n(ParaViewGlance.html)</title>
<polygon fill="none" stroke="black" points="207.88,-339 68.88,-339 68.88,-298 213.88,-298 213.88,-333 207.88,-339"/>
<polyline fill="none" stroke="black" points="207.88,-339 207.88,-333"/>
<polyline fill="none" stroke="black" points="213.88,-333 207.88,-333"/>
<text text-anchor="middle" x="141.38" y="-321.7" font-family="Times New Roman,serif" font-size="14.00">Paraview Glance</text>
<text text-anchor="middle" x="141.38" y="-305.2" font-family="Times New Roman,serif" font-size="14.00">(ParaViewGlance.html)</text>
</g>
<!-- Paraview Glance\n(ParaViewGlance.html)&#45;&gt;pvpython -->
<g id="edge12" class="edge">
<title>Paraview Glance\n(ParaViewGlance.html)&#45;&gt;pvpython</title>
<path fill="none" stroke="black" d="M214.03,-318.5C216.15,-318.5 218.26,-318.5 220.37,-318.5"/>
<polygon fill="black" stroke="black" points="220.17,-322 230.17,-318.5 220.17,-315 220.17,-322"/>
</g>
<!-- Paraview -->
<g id="node26" class="node">
<title>Paraview</title>
<polygon fill="none" stroke="black" points="617.5,-36 555.25,-36 551.25,-32 551.25,0 613.5,0 617.5,-4 617.5,-36"/>
<polyline fill="none" stroke="black" points="613.5,-32 551.25,-32"/>
<polyline fill="none" stroke="black" points="613.5,-32 613.5,0"/>
<polyline fill="none" stroke="black" points="613.5,-32 617.5,-36"/>
<text text-anchor="middle" x="584.38" y="-12.95" font-family="Times New Roman,serif" font-size="14.00">Paraview</text>
</g>
<!-- Paraview Interactive\n(curve_*.py)&#45;&gt;Paraview -->
<g id="edge20" class="edge">
<title>Paraview Interactive\n(curve_*.py)&#45;&gt;Paraview</title>
<path fill="none" stroke="black" d="M709.9,-672.67C680.87,-646.76 636.38,-598.41 636.38,-545.5 636.38,-545.5 636.38,-545.5 636.38,-166 636.38,-122.12 615.53,-74.87 600.23,-46.12"/>
<polygon fill="black" stroke="black" points="603.51,-44.81 595.63,-37.72 597.37,-48.17 603.51,-44.81"/>
</g>
<!-- CSV Data Files\n(curve_*.csv) -->
<g id="node14" class="node">
<title>CSV Data Files\n(curve_*.csv)</title>
<polygon fill="none" stroke="black" points="480.12,-565 477.12,-569 456.12,-569 453.12,-565 378.62,-565 378.62,-524 480.12,-524 480.12,-565"/>
<text text-anchor="middle" x="429.38" y="-547.7" font-family="Times New Roman,serif" font-size="14.00">CSV Data Files</text>
<text text-anchor="middle" x="429.38" y="-531.2" font-family="Times New Roman,serif" font-size="14.00">(curve_*.csv)</text>
</g>
<!-- fortran compile/run&#45;&gt;CSV Data Files\n(curve_*.csv) -->
<g id="edge3" class="edge">
<title>fortran compile/run&#45;&gt;CSV Data Files\n(curve_*.csv)</title>
<path fill="none" stroke="black" d="M430.14,-600.82C430.04,-593.59 429.92,-584.95 429.8,-576.66"/>
<polygon fill="black" stroke="black" points="433.31,-576.85 429.67,-566.89 426.31,-576.94 433.31,-576.85"/>
</g>
<!-- GNUplot Images\n(curve_gp_*.png) -->
<g id="node15" class="node">
<title>GNUplot Images\n(curve_gp_*.png)</title>
<polygon fill="none" stroke="black" points="352.75,-416 349.75,-420 328.75,-420 325.75,-416 240,-416 240,-375 352.75,-375 352.75,-416"/>
<text text-anchor="middle" x="296.38" y="-398.7" font-family="Times New Roman,serif" font-size="14.00">GNUplot Images</text>
<text text-anchor="middle" x="296.38" y="-382.2" font-family="Times New Roman,serif" font-size="14.00">(curve_gp_*.png)</text>
</g>
<!-- GNUplot&#45;&gt;GNUplot Images\n(curve_gp_*.png) -->
<g id="edge4" class="edge">
<title>GNUplot&#45;&gt;GNUplot Images\n(curve_gp_*.png)</title>
<path fill="none" stroke="black" d="M296.38,-451.82C296.38,-444.59 296.38,-435.95 296.38,-427.66"/>
<polygon fill="black" stroke="black" points="299.88,-427.89 296.38,-417.89 292.88,-427.89 299.88,-427.89"/>
</g>
<!-- CSV Data Files\n(curve_*.csv)&#45;&gt;GNUplot -->
<g id="edge7" class="edge">
<title>CSV Data Files\n(curve_*.csv)&#45;&gt;GNUplot</title>
<path fill="none" stroke="black" d="M393.03,-523.69C376.06,-514.44 355.76,-503.37 338.16,-493.78"/>
<polygon fill="black" stroke="black" points="339.93,-490.76 329.48,-489.04 336.58,-496.9 339.93,-490.76"/>
</g>
<!-- spaceCurveCSVtoVTU.rb -->
<g id="node16" class="node">
<title>spaceCurveCSVtoVTU.rb</title>
<polygon fill="none" stroke="black" points="508.62,-488 354.12,-488 350.12,-484 350.12,-452 504.62,-452 508.62,-456 508.62,-488"/>
<polyline fill="none" stroke="black" points="504.62,-484 350.12,-484"/>
<polyline fill="none" stroke="black" points="504.62,-484 504.62,-452"/>
<polyline fill="none" stroke="black" points="504.62,-484 508.62,-488"/>
<text text-anchor="middle" x="429.38" y="-464.95" font-family="Times New Roman,serif" font-size="14.00">spaceCurveCSVtoVTU.rb</text>
</g>
<!-- CSV Data Files\n(curve_*.csv)&#45;&gt;spaceCurveCSVtoVTU.rb -->
<g id="edge6" class="edge">
<title>CSV Data Files\n(curve_*.csv)&#45;&gt;spaceCurveCSVtoVTU.rb</title>
<path fill="none" stroke="black" d="M429.38,-523.69C429.38,-516.25 429.38,-507.64 429.38,-499.57"/>
<polygon fill="black" stroke="black" points="432.88,-499.83 429.38,-489.83 425.88,-499.83 432.88,-499.83"/>
</g>
<!-- VTU Data Files\n(curve_*.vtu) -->
<g id="node17" class="node">
<title>VTU Data Files\n(curve_*.vtu)</title>
<polygon fill="none" stroke="black" points="480.88,-416 477.88,-420 456.88,-420 453.88,-416 377.88,-416 377.88,-375 480.88,-375 480.88,-416"/>
<text text-anchor="middle" x="429.38" y="-398.7" font-family="Times New Roman,serif" font-size="14.00">VTU Data Files</text>
<text text-anchor="middle" x="429.38" y="-382.2" font-family="Times New Roman,serif" font-size="14.00">(curve_*.vtu)</text>
</g>
<!-- spaceCurveCSVtoVTU.rb&#45;&gt;VTU Data Files\n(curve_*.vtu) -->
<g id="edge8" class="edge">
<title>spaceCurveCSVtoVTU.rb&#45;&gt;VTU Data Files\n(curve_*.vtu)</title>
<path fill="none" stroke="black" d="M429.38,-451.82C429.38,-444.59 429.38,-435.95 429.38,-427.66"/>
<polygon fill="black" stroke="black" points="432.88,-427.89 429.38,-417.89 425.88,-427.89 432.88,-427.89"/>
</g>
<!-- VTU Data Files\n(curve_*.vtu)&#45;&gt;pvpython -->
<g id="edge13" class="edge">
<title>VTU Data Files\n(curve_*.vtu)&#45;&gt;pvpython</title>
<path fill="none" stroke="black" d="M385.86,-374.6C362.32,-363.84 333.32,-350.57 309.66,-339.75"/>
<polygon fill="black" stroke="black" points="311.14,-336.58 300.59,-335.6 308.23,-342.95 311.14,-336.58"/>
</g>
<!-- VTU Data Files\n(curve_*.vtu)&#45;&gt;Paraview -->
<g id="edge21" class="edge">
<title>VTU Data Files\n(curve_*.vtu)&#45;&gt;Paraview</title>
<path fill="none" stroke="black" d="M440.92,-374.59C456.24,-346.24 481.38,-292.14 481.38,-242.5 481.38,-242.5 481.38,-242.5 481.38,-166 481.38,-115.66 522.39,-70.31 552.66,-43.7"/>
<polygon fill="black" stroke="black" points="554.76,-46.51 560.11,-37.37 550.22,-41.18 554.76,-46.51"/>
</g>
<!-- Glance HTML\n(curve_*.html) -->
<g id="node19" class="node">
<title>Glance HTML\n(curve_*.html)</title>
<polygon fill="none" stroke="black" points="314.25,-262 311.25,-266 290.25,-266 287.25,-262 216.5,-262 216.5,-221 314.25,-221 314.25,-262"/>
<text text-anchor="middle" x="265.38" y="-244.7" font-family="Times New Roman,serif" font-size="14.00">Glance HTML</text>
<text text-anchor="middle" x="265.38" y="-228.2" font-family="Times New Roman,serif" font-size="14.00">(curve_*.html)</text>
</g>
<!-- pvpython&#45;&gt;Glance HTML\n(curve_*.html) -->
<g id="edge9" class="edge">
<title>pvpython&#45;&gt;Glance HTML\n(curve_*.html)</title>
<path fill="none" stroke="black" d="M265.38,-300.1C265.38,-292.28 265.38,-282.8 265.38,-273.81"/>
<polygon fill="black" stroke="black" points="268.88,-273.96 265.38,-263.96 261.88,-273.96 268.88,-273.96"/>
</g>
<!-- Glance DATA\n(curve_*.vtkjs) -->
<g id="node20" class="node">
<title>Glance DATA\n(curve_*.vtkjs)</title>
<polygon fill="none" stroke="black" points="430.62,-262 427.62,-266 406.62,-266 403.62,-262 332.12,-262 332.12,-221 430.62,-221 430.62,-262"/>
<text text-anchor="middle" x="381.38" y="-244.7" font-family="Times New Roman,serif" font-size="14.00">Glance DATA</text>
<text text-anchor="middle" x="381.38" y="-228.2" font-family="Times New Roman,serif" font-size="14.00">(curve_*.vtkjs)</text>
</g>
<!-- pvpython&#45;&gt;Glance DATA\n(curve_*.vtkjs) -->
<g id="edge10" class="edge">
<title>pvpython&#45;&gt;Glance DATA\n(curve_*.vtkjs)</title>
<path fill="none" stroke="black" d="M292.28,-300.1C306.83,-290.7 325.08,-278.9 341.27,-268.43"/>
<polygon fill="black" stroke="black" points="342.75,-271.64 349.25,-263.27 338.95,-265.76 342.75,-271.64"/>
</g>
<!-- Glance Preview\n(curve_pv_*.png) -->
<g id="node21" class="node">
<title>Glance Preview\n(curve_pv_*.png)</title>
<polygon fill="none" stroke="black" points="112.75,-262 109.75,-266 88.75,-266 85.75,-262 0,-262 0,-221 112.75,-221 112.75,-262"/>
<text text-anchor="middle" x="56.38" y="-244.7" font-family="Times New Roman,serif" font-size="14.00">Glance Preview</text>
<text text-anchor="middle" x="56.38" y="-228.2" font-family="Times New Roman,serif" font-size="14.00">(curve_pv_*.png)</text>
</g>
<!-- pvpython&#45;&gt;Glance Preview\n(curve_pv_*.png) -->
<g id="edge11" class="edge">
<title>pvpython&#45;&gt;Glance Preview\n(curve_pv_*.png)</title>
<path fill="none" stroke="black" d="M231.71,-301.84C228.57,-300.5 225.43,-299.2 222.38,-298 190.38,-285.44 154.25,-273.14 123.89,-263.33"/>
<polygon fill="black" stroke="black" points="125.02,-260.01 114.43,-260.29 122.88,-266.68 125.02,-260.01"/>
</g>
<!-- Emacs -->
<g id="node24" class="node">
<title>Emacs</title>
<polygon fill="none" stroke="black" points="241.38,-185 191.38,-185 187.38,-181 187.38,-149 237.38,-149 241.38,-153 241.38,-185"/>
<polyline fill="none" stroke="black" points="237.38,-181 187.38,-181"/>
<polyline fill="none" stroke="black" points="237.38,-181 237.38,-149"/>
<polyline fill="none" stroke="black" points="237.38,-181 241.38,-185"/>
<text text-anchor="middle" x="214.38" y="-161.95" font-family="Times New Roman,serif" font-size="14.00">Emacs</text>
</g>
<!-- Glance HTML\n(curve_*.html)&#45;&gt;Emacs -->
<g id="edge17" class="edge">
<title>Glance HTML\n(curve_*.html)&#45;&gt;Emacs</title>
<path fill="none" stroke="black" d="M251.44,-220.69C245.78,-212.65 239.16,-203.24 233.09,-194.61"/>
<polygon fill="black" stroke="black" points="236.05,-192.72 227.43,-186.56 230.32,-196.75 236.05,-192.72"/>
</g>
<!-- Glance DATA\n(curve_*.vtkjs)&#45;&gt;Emacs -->
<g id="edge18" class="edge">
<title>Glance DATA\n(curve_*.vtkjs)&#45;&gt;Emacs</title>
<path fill="none" stroke="black" d="M335.74,-220.69C309.49,-209.29 276.91,-195.15 252.12,-184.39"/>
<polygon fill="black" stroke="black" points="253.63,-181.22 243.06,-180.45 250.84,-187.65 253.63,-181.22"/>
</g>
<!-- Glance Preview\n(curve_pv_*.png)&#45;&gt;Emacs -->
<g id="edge19" class="edge">
<title>Glance Preview\n(curve_pv_*.png)&#45;&gt;Emacs</title>
<path fill="none" stroke="black" d="M100.49,-220.61C121.35,-211.17 146.8,-199.59 176.6,-185.8"/>
<polygon fill="black" stroke="black" points="177.9,-189.05 185.5,-181.67 174.96,-182.7 177.9,-189.05"/>
</g>
<!-- Browser -->
<g id="node22" class="node">
<title>Browser</title>
<polygon fill="none" stroke="black" points="245.25,-36 187.5,-36 183.5,-32 183.5,0 241.25,0 245.25,-4 245.25,-36"/>
<polyline fill="none" stroke="black" points="241.25,-32 183.5,-32"/>
<polyline fill="none" stroke="black" points="241.25,-32 241.25,0"/>
<polyline fill="none" stroke="black" points="241.25,-32 245.25,-36"/>
<text text-anchor="middle" x="214.38" y="-12.95" font-family="Times New Roman,serif" font-size="14.00">Browser</text>
</g>
<!-- org&#45;mode -->
<g id="node23" class="node">
<title>org&#45;mode</title>
<polygon fill="none" stroke="black" points="169,-185 99.75,-185 99.75,-181 95.75,-181 95.75,-177 99.75,-177 99.75,-157 95.75,-157 95.75,-153 99.75,-153 99.75,-149 169,-149 169,-185"/>
<polyline fill="none" stroke="black" points="99.75,-181 103.75,-181 103.75,-177 99.75,-177"/>
<polyline fill="none" stroke="black" points="99.75,-157 103.75,-157 103.75,-153 99.75,-153"/>
<text text-anchor="middle" x="134.38" y="-161.95" font-family="Times New Roman,serif" font-size="14.00">org&#45;mode</text>
</g>
<!-- org&#45;mode&#45;&gt;Emacs -->
<g id="edge15" class="edge">
<title>org&#45;mode&#45;&gt;Emacs</title>
<path fill="none" stroke="black" d="M169.38,-167C171.48,-167 173.59,-167 175.69,-167"/>
<polygon fill="black" stroke="black" points="175.44,-170.5 185.44,-167 175.44,-163.5 175.44,-170.5"/>
</g>
<!-- ZOO Web Page\n(index.html) -->
<g id="node27" class="node">
<title>ZOO Web Page\n(index.html)</title>
<polygon fill="none" stroke="black" points="259.12,-113 163.62,-113 163.62,-72 265.12,-72 265.12,-107 259.12,-113"/>
<polyline fill="none" stroke="black" points="259.12,-113 259.12,-107"/>
<polyline fill="none" stroke="black" points="265.12,-107 259.12,-107"/>
<text text-anchor="middle" x="214.38" y="-95.7" font-family="Times New Roman,serif" font-size="14.00">ZOO Web Page</text>
<text text-anchor="middle" x="214.38" y="-79.2" font-family="Times New Roman,serif" font-size="14.00">(index.html)</text>
</g>
<!-- Emacs&#45;&gt;ZOO Web Page\n(index.html) -->
<g id="edge22" class="edge">
<title>Emacs&#45;&gt;ZOO Web Page\n(index.html)</title>
<path fill="none" stroke="black" d="M214.38,-148.82C214.38,-141.59 214.38,-132.95 214.38,-124.66"/>
<polygon fill="black" stroke="black" points="217.88,-124.89 214.38,-114.89 210.88,-124.89 217.88,-124.89"/>
</g>
<!-- index.org -->
<g id="node25" class="node">
<title>index.org</title>
<polygon fill="none" stroke="black" points="192.25,-259.5 130.5,-259.5 130.5,-223.5 198.25,-223.5 198.25,-253.5 192.25,-259.5"/>
<polyline fill="none" stroke="black" points="192.25,-259.5 192.25,-253.5"/>
<polyline fill="none" stroke="black" points="198.25,-253.5 192.25,-253.5"/>
<text text-anchor="middle" x="164.38" y="-236.45" font-family="Times New Roman,serif" font-size="14.00">index.org</text>
</g>
<!-- index.org&#45;&gt;Emacs -->
<g id="edge16" class="edge">
<title>index.org&#45;&gt;Emacs</title>
<path fill="none" stroke="black" d="M176.22,-223.32C182.2,-214.65 189.58,-203.95 196.25,-194.28"/>
<polygon fill="black" stroke="black" points="198.96,-196.52 201.75,-186.3 193.19,-192.55 198.96,-196.52"/>
</g>
<!-- ZOO Web Page\n(index.html)&#45;&gt;Browser -->
<g id="edge23" class="edge">
<title>ZOO Web Page\n(index.html)&#45;&gt;Browser</title>
<path fill="none" stroke="black" d="M214.38,-71.69C214.38,-64.25 214.38,-55.64 214.38,-47.57"/>
<polygon fill="black" stroke="black" points="217.88,-47.83 214.38,-37.83 210.88,-47.83 217.88,-47.83"/>
</g>
</g>
</svg>
