<?xml version="1.0" encoding="UTF-8" standalone="no"?>
<!DOCTYPE svg PUBLIC "-//W3C//DTD SVG 1.1//EN"
 "http://www.w3.org/Graphics/SVG/1.1/DTD/svg11.dtd">
<!-- Generated by graphviz version 12.2.1 (0)
 -->
<!-- Pages: 1 -->
<svg width="872pt" height="717pt"
 viewBox="0.00 0.00 872.00 717.00" xmlns="http://www.w3.org/2000/svg" xmlns:xlink="http://www.w3.org/1999/xlink">
<g id="graph0" class="graph" transform="scale(1 1) rotate(0) translate(4 713)">
<polygon fill="white" stroke="none" points="-4,4 -4,-713 868,-713 868,4 -4,4"/>
<!-- ODE Solver Template\n(curve_template.f90) -->
<g id="node1" class="node">
<title>ODE Solver Template\n(curve_template.f90)</title>
<polygon fill="none" stroke="black" points="435.25,-709 304.5,-709 304.5,-668 441.25,-668 441.25,-703 435.25,-709"/>
<polyline fill="none" stroke="black" points="435.25,-709 435.25,-703"/>
<polyline fill="none" stroke="black" points="441.25,-703 435.25,-703"/>
<text text-anchor="middle" x="372.88" y="-691.7" font-family="Times New Roman,serif" font-size="14.00">ODE Solver Template</text>
<text text-anchor="middle" x="372.88" y="-675.2" font-family="Times New Roman,serif" font-size="14.00">(curve_template.f90)</text>
</g>
<!-- json2fortran.rb -->
<g id="node5" class="node">
<title>json2fortran.rb</title>
<polygon fill="none" stroke="black" points="648.38,-632 555.38,-632 551.38,-628 551.38,-596 644.38,-596 648.38,-600 648.38,-632"/>
<polyline fill="none" stroke="black" points="644.38,-628 551.38,-628"/>
<polyline fill="none" stroke="black" points="644.38,-628 644.38,-596"/>
<polyline fill="none" stroke="black" points="644.38,-628 648.38,-632"/>
<text text-anchor="middle" x="599.88" y="-608.95" font-family="Times New Roman,serif" font-size="14.00">json2fortran.rb</text>
</g>
<!-- ODE Solver Template\n(curve_template.f90)&#45;&gt;json2fortran.rb -->
<g id="edge20" class="edge">
<title>ODE Solver Template\n(curve_template.f90)&#45;&gt;json2fortran.rb</title>
<path fill="none" stroke="black" d="M435.2,-667.59C467.99,-657.12 507.97,-644.35 540.33,-634.02"/>
<polygon fill="black" stroke="black" points="541.09,-637.45 549.55,-631.07 538.96,-630.78 541.09,-637.45"/>
</g>
<!-- GNUplot Template\n(curve_template.gplt) -->
<g id="node2" class="node">
<title>GNUplot Template\n(curve_template.gplt)</title>
<polygon fill="none" stroke="black" points="586.75,-709 459,-709 459,-668 592.75,-668 592.75,-703 586.75,-709"/>
<polyline fill="none" stroke="black" points="586.75,-709 586.75,-703"/>
<polyline fill="none" stroke="black" points="592.75,-703 586.75,-703"/>
<text text-anchor="middle" x="525.88" y="-691.7" font-family="Times New Roman,serif" font-size="14.00">GNUplot Template</text>
<text text-anchor="middle" x="525.88" y="-675.2" font-family="Times New Roman,serif" font-size="14.00">(curve_template.gplt)</text>
</g>
<!-- GNUplot Template\n(curve_template.gplt)&#45;&gt;json2fortran.rb -->
<g id="edge21" class="edge">
<title>GNUplot Template\n(curve_template.gplt)&#45;&gt;json2fortran.rb</title>
<path fill="none" stroke="black" d="M546.1,-667.69C554.75,-659.21 564.95,-649.22 574.13,-640.23"/>
<polygon fill="black" stroke="black" points="576.42,-642.88 581.12,-633.38 571.52,-637.88 576.42,-642.88"/>
</g>
<!-- Paraview Template\n(curve_template.py) -->
<g id="node3" class="node">
<title>Paraview Template\n(curve_template.py)</title>
<polygon fill="none" stroke="black" points="731,-709 610.75,-709 610.75,-668 737,-668 737,-703 731,-709"/>
<polyline fill="none" stroke="black" points="731,-709 731,-703"/>
<polyline fill="none" stroke="black" points="737,-703 731,-703"/>
<text text-anchor="middle" x="673.88" y="-691.7" font-family="Times New Roman,serif" font-size="14.00">Paraview Template</text>
<text text-anchor="middle" x="673.88" y="-675.2" font-family="Times New Roman,serif" font-size="14.00">(curve_template.py)</text>
</g>
<!-- Paraview Template\n(curve_template.py)&#45;&gt;json2fortran.rb -->
<g id="edge22" class="edge">
<title>Paraview Template\n(curve_template.py)&#45;&gt;json2fortran.rb</title>
<path fill="none" stroke="black" d="M653.65,-667.69C645,-659.21 634.8,-649.22 625.62,-640.23"/>
<polygon fill="black" stroke="black" points="628.23,-637.88 618.63,-633.38 623.33,-642.88 628.23,-637.88"/>
</g>
<!-- ZOO JSON\n(zoo.json) -->
<g id="node4" class="node">
<title>ZOO JSON\n(zoo.json)</title>
<polygon fill="none" stroke="black" points="828.75,-709 755,-709 755,-668 834.75,-668 834.75,-703 828.75,-709"/>
<polyline fill="none" stroke="black" points="828.75,-709 828.75,-703"/>
<polyline fill="none" stroke="black" points="834.75,-703 828.75,-703"/>
<text text-anchor="middle" x="794.88" y="-691.7" font-family="Times New Roman,serif" font-size="14.00">ZOO JSON</text>
<text text-anchor="middle" x="794.88" y="-675.2" font-family="Times New Roman,serif" font-size="14.00">(zoo.json)</text>
</g>
<!-- ZOO JSON\n(zoo.json)&#45;&gt;json2fortran.rb -->
<g id="edge23" class="edge">
<title>ZOO JSON\n(zoo.json)&#45;&gt;json2fortran.rb</title>
<path fill="none" stroke="black" d="M754.54,-671.33C751.61,-670.2 748.7,-669.07 745.88,-668 717.52,-657.21 685.89,-645.67 659.34,-636.12"/>
<polygon fill="black" stroke="black" points="660.7,-632.89 650.1,-632.81 658.33,-639.48 660.7,-632.89"/>
</g>
<!-- ODE Solver Programs\n(curve_*.f90) -->
<g id="node7" class="node">
<title>ODE Solver Programs\n(curve_*.f90)</title>
<polygon fill="none" stroke="black" points="594.38,-560 591.38,-564 570.38,-564 567.38,-560 455.38,-560 455.38,-519 594.38,-519 594.38,-560"/>
<text text-anchor="middle" x="524.88" y="-542.7" font-family="Times New Roman,serif" font-size="14.00">ODE Solver Programs</text>
<text text-anchor="middle" x="524.88" y="-526.2" font-family="Times New Roman,serif" font-size="14.00">(curve_*.f90)</text>
</g>
<!-- json2fortran.rb&#45;&gt;ODE Solver Programs\n(curve_*.f90) -->
<g id="edge24" class="edge">
<title>json2fortran.rb&#45;&gt;ODE Solver Programs\n(curve_*.f90)</title>
<path fill="none" stroke="black" d="M582.1,-595.82C573.59,-587.59 563.19,-577.53 553.59,-568.26"/>
<polygon fill="black" stroke="black" points="556.15,-565.87 546.53,-561.43 551.29,-570.9 556.15,-565.87"/>
</g>
<!-- GNUplot Input\n(curve_*.gplt) -->
<g id="node8" class="node">
<title>GNUplot Input\n(curve_*.gplt)</title>
<polygon fill="none" stroke="black" points="856.12,-560 853.12,-564 832.12,-564 829.12,-560 757.62,-560 757.62,-519 856.12,-519 856.12,-560"/>
<text text-anchor="middle" x="806.88" y="-542.7" font-family="Times New Roman,serif" font-size="14.00">GNUplot Input</text>
<text text-anchor="middle" x="806.88" y="-526.2" font-family="Times New Roman,serif" font-size="14.00">(curve_*.gplt)</text>
</g>
<!-- json2fortran.rb&#45;&gt;GNUplot Input\n(curve_*.gplt) -->
<g id="edge25" class="edge">
<title>json2fortran.rb&#45;&gt;GNUplot Input\n(curve_*.gplt)</title>
<path fill="none" stroke="black" d="M648.67,-595.91C677.97,-585.65 715.47,-572.51 746.61,-561.61"/>
<polygon fill="black" stroke="black" points="747.62,-564.96 755.9,-558.35 745.31,-558.35 747.62,-564.96"/>
</g>
<!-- Paraview Batch\n(curve_batch_*.py) -->
<g id="node9" class="node">
<title>Paraview Batch\n(curve_batch_*.py)</title>
<polygon fill="none" stroke="black" points="121.75,-560 118.75,-564 97.75,-564 94.75,-560 0,-560 0,-519 121.75,-519 121.75,-560"/>
<text text-anchor="middle" x="60.88" y="-542.7" font-family="Times New Roman,serif" font-size="14.00">Paraview Batch</text>
<text text-anchor="middle" x="60.88" y="-526.2" font-family="Times New Roman,serif" font-size="14.00">(curve_batch_*.py)</text>
</g>
<!-- json2fortran.rb&#45;&gt;Paraview Batch\n(curve_batch_*.py) -->
<g id="edge26" class="edge">
<title>json2fortran.rb&#45;&gt;Paraview Batch\n(curve_batch_*.py)</title>
<path fill="none" stroke="black" d="M551.1,-610.13C467.29,-604.63 290.5,-590.54 133.35,-560.54"/>
<polygon fill="black" stroke="black" points="134.04,-557.11 123.56,-558.64 132.71,-563.98 134.04,-557.11"/>
</g>
<!-- Paraview Interactive\n(curve_*.py) -->
<g id="node11" class="node">
<title>Paraview Interactive\n(curve_*.py)</title>
<polygon fill="none" stroke="black" points="739.75,-560 736.75,-564 715.75,-564 712.75,-560 612,-560 612,-519 739.75,-519 739.75,-560"/>
<text text-anchor="middle" x="675.88" y="-542.7" font-family="Times New Roman,serif" font-size="14.00">Paraview Interactive</text>
<text text-anchor="middle" x="675.88" y="-526.2" font-family="Times New Roman,serif" font-size="14.00">(curve_*.py)</text>
</g>
<!-- json2fortran.rb&#45;&gt;Paraview Interactive\n(curve_*.py) -->
<g id="edge27" class="edge">
<title>json2fortran.rb&#45;&gt;Paraview Interactive\n(curve_*.py)</title>
<path fill="none" stroke="black" d="M617.89,-595.82C626.51,-587.59 637.05,-577.53 646.77,-568.26"/>
<polygon fill="black" stroke="black" points="649.12,-570.86 653.94,-561.43 644.29,-565.8 649.12,-570.86"/>
</g>
<!-- MRKISS\n(github.com/richmit/) -->
<g id="node6" class="node">
<title>MRKISS\n(github.com/richmit/)</title>
<polygon fill="none" stroke="black" points="437.12,-560 302.62,-560 302.62,-556 298.62,-556 298.62,-552 302.62,-552 302.62,-527 298.62,-527 298.62,-523 302.62,-523 302.62,-519 437.12,-519 437.12,-560"/>
<polyline fill="none" stroke="black" points="302.62,-556 306.62,-556 306.62,-552 302.62,-552"/>
<polyline fill="none" stroke="black" points="302.62,-527 306.62,-527 306.62,-523 302.62,-523"/>
<text text-anchor="middle" x="369.88" y="-542.7" font-family="Times New Roman,serif" font-size="14.00">MRKISS</text>
<text text-anchor="middle" x="369.88" y="-526.2" font-family="Times New Roman,serif" font-size="14.00">(github.com/richmit/)</text>
</g>
<!-- fortran compile/run -->
<g id="node12" class="node">
<title>fortran compile/run</title>
<polygon fill="none" stroke="black" points="503.12,-483 384.62,-483 380.62,-479 380.62,-447 499.12,-447 503.12,-451 503.12,-483"/>
<polyline fill="none" stroke="black" points="499.12,-479 380.62,-479"/>
<polyline fill="none" stroke="black" points="499.12,-479 499.12,-447"/>
<polyline fill="none" stroke="black" points="499.12,-479 503.12,-483"/>
<text text-anchor="middle" x="441.88" y="-459.95" font-family="Times New Roman,serif" font-size="14.00">fortran compile/run</text>
</g>
<!-- MRKISS\n(github.com/richmit/)&#45;&gt;fortran compile/run -->
<g id="edge1" class="edge">
<title>MRKISS\n(github.com/richmit/)&#45;&gt;fortran compile/run</title>
<path fill="none" stroke="black" d="M389.55,-518.69C397.97,-510.21 407.89,-500.22 416.82,-491.23"/>
<polygon fill="black" stroke="black" points="419.05,-493.96 423.61,-484.39 414.08,-489.02 419.05,-493.96"/>
</g>
<!-- ODE Solver Programs\n(curve_*.f90)&#45;&gt;fortran compile/run -->
<g id="edge2" class="edge">
<title>ODE Solver Programs\n(curve_*.f90)&#45;&gt;fortran compile/run</title>
<path fill="none" stroke="black" d="M502.19,-518.69C492.3,-510.04 480.58,-499.81 470.13,-490.68"/>
<polygon fill="black" stroke="black" points="472.68,-488.26 462.84,-484.32 468.07,-493.53 472.68,-488.26"/>
</g>
<!-- GNUplot -->
<g id="node13" class="node">
<title>GNUplot</title>
<polygon fill="none" stroke="black" points="840,-483 777.75,-483 773.75,-479 773.75,-447 836,-447 840,-451 840,-483"/>
<polyline fill="none" stroke="black" points="836,-479 773.75,-479"/>
<polyline fill="none" stroke="black" points="836,-479 836,-447"/>
<polyline fill="none" stroke="black" points="836,-479 840,-483"/>
<text text-anchor="middle" x="806.88" y="-459.95" font-family="Times New Roman,serif" font-size="14.00">GNUplot</text>
</g>
<!-- GNUplot Input\n(curve_*.gplt)&#45;&gt;GNUplot -->
<g id="edge5" class="edge">
<title>GNUplot Input\n(curve_*.gplt)&#45;&gt;GNUplot</title>
<path fill="none" stroke="black" d="M806.88,-518.69C806.88,-511.25 806.88,-502.64 806.88,-494.57"/>
<polygon fill="black" stroke="black" points="810.38,-494.83 806.88,-484.83 803.38,-494.83 810.38,-494.83"/>
</g>
<!-- pvpython -->
<g id="node18" class="node">
<title>pvpython</title>
<polygon fill="none" stroke="black" points="245.38,-185 182.38,-185 178.38,-181 178.38,-149 241.38,-149 245.38,-153 245.38,-185"/>
<polyline fill="none" stroke="black" points="241.38,-181 178.38,-181"/>
<polyline fill="none" stroke="black" points="241.38,-181 241.38,-149"/>
<polyline fill="none" stroke="black" points="241.38,-181 245.38,-185"/>
<text text-anchor="middle" x="211.88" y="-161.95" font-family="Times New Roman,serif" font-size="14.00">pvpython</text>
</g>
<!-- Paraview Batch\n(curve_batch_*.py)&#45;&gt;pvpython -->
<g id="edge13" class="edge">
<title>Paraview Batch\n(curve_batch_*.py)&#45;&gt;pvpython</title>
<path fill="none" stroke="black" d="M74.1,-518.52C90.93,-491.09 117.88,-439.68 117.88,-391.5 117.88,-391.5 117.88,-391.5 117.88,-315 117.88,-265.86 155.62,-219.97 183.27,-192.94"/>
<polygon fill="black" stroke="black" points="185.52,-195.64 190.38,-186.22 180.71,-190.55 185.52,-195.64"/>
</g>
<!-- Paraview Glance\n(ParaViewGlance.html) -->
<g id="node10" class="node">
<title>Paraview Glance\n(ParaViewGlance.html)</title>
<polygon fill="none" stroke="black" points="278.38,-560 139.38,-560 139.38,-519 284.38,-519 284.38,-554 278.38,-560"/>
<polyline fill="none" stroke="black" points="278.38,-560 278.38,-554"/>
<polyline fill="none" stroke="black" points="284.38,-554 278.38,-554"/>
<text text-anchor="middle" x="211.88" y="-542.7" font-family="Times New Roman,serif" font-size="14.00">Paraview Glance</text>
<text text-anchor="middle" x="211.88" y="-526.2" font-family="Times New Roman,serif" font-size="14.00">(ParaViewGlance.html)</text>
</g>
<!-- Paraview Glance\n(ParaViewGlance.html)&#45;&gt;pvpython -->
<g id="edge11" class="edge">
<title>Paraview Glance\n(ParaViewGlance.html)&#45;&gt;pvpython</title>
<path fill="none" stroke="black" d="M211.88,-518.53C211.88,-490.25 211.88,-436.93 211.88,-391.5 211.88,-391.5 211.88,-391.5 211.88,-315 211.88,-273.73 211.88,-225.94 211.88,-196.34"/>
<polygon fill="black" stroke="black" points="215.38,-196.71 211.88,-186.71 208.38,-196.71 215.38,-196.71"/>
</g>
<!-- Paraview -->
<g id="node23" class="node">
<title>Paraview</title>
<polygon fill="none" stroke="black" points="608,-36 545.75,-36 541.75,-32 541.75,0 604,0 608,-4 608,-36"/>
<polyline fill="none" stroke="black" points="604,-32 541.75,-32"/>
<polyline fill="none" stroke="black" points="604,-32 604,0"/>
<polyline fill="none" stroke="black" points="604,-32 608,-36"/>
<text text-anchor="middle" x="574.88" y="-12.95" font-family="Times New Roman,serif" font-size="14.00">Paraview</text>
</g>
<!-- Paraview Interactive\n(curve_*.py)&#45;&gt;Paraview -->
<g id="edge17" class="edge">
<title>Paraview Interactive\n(curve_*.py)&#45;&gt;Paraview</title>
<path fill="none" stroke="black" d="M663.62,-518.89C647.69,-491.47 621.88,-439.62 621.88,-391.5 621.88,-391.5 621.88,-391.5 621.88,-166 621.88,-122.52 602.99,-75.1 589.16,-46.2"/>
<polygon fill="black" stroke="black" points="592.4,-44.85 584.83,-37.44 586.12,-47.95 592.4,-44.85"/>
</g>
<!-- CSV Data Files\n(curve_*.csv) -->
<g id="node14" class="node">
<title>CSV Data Files\n(curve_*.csv)</title>
<polygon fill="none" stroke="black" points="492.62,-411 489.62,-415 468.62,-415 465.62,-411 391.12,-411 391.12,-370 492.62,-370 492.62,-411"/>
<text text-anchor="middle" x="441.88" y="-393.7" font-family="Times New Roman,serif" font-size="14.00">CSV Data Files</text>
<text text-anchor="middle" x="441.88" y="-377.2" font-family="Times New Roman,serif" font-size="14.00">(curve_*.csv)</text>
</g>
<!-- fortran compile/run&#45;&gt;CSV Data Files\n(curve_*.csv) -->
<g id="edge3" class="edge">
<title>fortran compile/run&#45;&gt;CSV Data Files\n(curve_*.csv)</title>
<path fill="none" stroke="black" d="M441.88,-446.82C441.88,-439.59 441.88,-430.95 441.88,-422.66"/>
<polygon fill="black" stroke="black" points="445.38,-422.89 441.88,-412.89 438.38,-422.89 445.38,-422.89"/>
</g>
<!-- GNU Plot Images\n(curve_gp_*.png) -->
<g id="node15" class="node">
<title>GNU Plot Images\n(curve_gp_*.png)</title>
<polygon fill="none" stroke="black" points="864,-411 861,-415 840,-415 837,-411 749.75,-411 749.75,-370 864,-370 864,-411"/>
<text text-anchor="middle" x="806.88" y="-393.7" font-family="Times New Roman,serif" font-size="14.00">GNU Plot Images</text>
<text text-anchor="middle" x="806.88" y="-377.2" font-family="Times New Roman,serif" font-size="14.00">(curve_gp_*.png)</text>
</g>
<!-- GNUplot&#45;&gt;GNU Plot Images\n(curve_gp_*.png) -->
<g id="edge4" class="edge">
<title>GNUplot&#45;&gt;GNU Plot Images\n(curve_gp_*.png)</title>
<path fill="none" stroke="black" d="M806.88,-446.82C806.88,-439.59 806.88,-430.95 806.88,-422.66"/>
<polygon fill="black" stroke="black" points="810.38,-422.89 806.88,-412.89 803.38,-422.89 810.38,-422.89"/>
</g>
<!-- spaceCurveCSVtoVTU.rb -->
<g id="node16" class="node">
<title>spaceCurveCSVtoVTU.rb</title>
<polygon fill="none" stroke="black" points="521.12,-334 366.62,-334 362.62,-330 362.62,-298 517.12,-298 521.12,-302 521.12,-334"/>
<polyline fill="none" stroke="black" points="517.12,-330 362.62,-330"/>
<polyline fill="none" stroke="black" points="517.12,-330 517.12,-298"/>
<polyline fill="none" stroke="black" points="517.12,-330 521.12,-334"/>
<text text-anchor="middle" x="441.88" y="-310.95" font-family="Times New Roman,serif" font-size="14.00">spaceCurveCSVtoVTU.rb</text>
</g>
<!-- CSV Data Files\n(curve_*.csv)&#45;&gt;spaceCurveCSVtoVTU.rb -->
<g id="edge6" class="edge">
<title>CSV Data Files\n(curve_*.csv)&#45;&gt;spaceCurveCSVtoVTU.rb</title>
<path fill="none" stroke="black" d="M441.88,-369.69C441.88,-362.25 441.88,-353.64 441.88,-345.57"/>
<polygon fill="black" stroke="black" points="445.38,-345.83 441.88,-335.83 438.38,-345.83 445.38,-345.83"/>
</g>
<!-- nomacs -->
<g id="node24" class="node">
<title>nomacs</title>
<polygon fill="none" stroke="black" points="835.88,-36 781.88,-36 777.88,-32 777.88,0 831.88,0 835.88,-4 835.88,-36"/>
<polyline fill="none" stroke="black" points="831.88,-32 777.88,-32"/>
<polyline fill="none" stroke="black" points="831.88,-32 831.88,0"/>
<polyline fill="none" stroke="black" points="831.88,-32 835.88,-36"/>
<text text-anchor="middle" x="806.88" y="-12.95" font-family="Times New Roman,serif" font-size="14.00">nomacs</text>
</g>
<!-- GNU Plot Images\n(curve_gp_*.png)&#45;&gt;nomacs -->
<g id="edge19" class="edge">
<title>GNU Plot Images\n(curve_gp_*.png)&#45;&gt;nomacs</title>
<path fill="none" stroke="black" d="M806.88,-369.53C806.88,-341.25 806.88,-287.93 806.88,-242.5 806.88,-242.5 806.88,-242.5 806.88,-166 806.88,-124.73 806.88,-76.94 806.88,-47.34"/>
<polygon fill="black" stroke="black" points="810.38,-47.71 806.88,-37.71 803.38,-47.71 810.38,-47.71"/>
</g>
<!-- VTU Data Files\n(curve_*.vtu) -->
<g id="node17" class="node">
<title>VTU Data Files\n(curve_*.vtu)</title>
<polygon fill="none" stroke="black" points="493.38,-262 490.38,-266 469.38,-266 466.38,-262 390.38,-262 390.38,-221 493.38,-221 493.38,-262"/>
<text text-anchor="middle" x="441.88" y="-244.7" font-family="Times New Roman,serif" font-size="14.00">VTU Data Files</text>
<text text-anchor="middle" x="441.88" y="-228.2" font-family="Times New Roman,serif" font-size="14.00">(curve_*.vtu)</text>
</g>
<!-- spaceCurveCSVtoVTU.rb&#45;&gt;VTU Data Files\n(curve_*.vtu) -->
<g id="edge7" class="edge">
<title>spaceCurveCSVtoVTU.rb&#45;&gt;VTU Data Files\n(curve_*.vtu)</title>
<path fill="none" stroke="black" d="M441.88,-297.82C441.88,-290.59 441.88,-281.95 441.88,-273.66"/>
<polygon fill="black" stroke="black" points="445.38,-273.89 441.88,-263.89 438.38,-273.89 445.38,-273.89"/>
</g>
<!-- VTU Data Files\n(curve_*.vtu)&#45;&gt;pvpython -->
<g id="edge12" class="edge">
<title>VTU Data Files\n(curve_*.vtu)&#45;&gt;pvpython</title>
<path fill="none" stroke="black" d="M389.97,-224.14C349.82,-211.48 294.79,-194.14 256.58,-182.09"/>
<polygon fill="black" stroke="black" points="257.81,-178.81 247.22,-179.14 255.71,-185.49 257.81,-178.81"/>
</g>
<!-- VTU Data Files\n(curve_*.vtu)&#45;&gt;Paraview -->
<g id="edge18" class="edge">
<title>VTU Data Files\n(curve_*.vtu)&#45;&gt;Paraview</title>
<path fill="none" stroke="black" d="M453.68,-220.84C477.51,-181.16 531.4,-91.41 558.56,-46.16"/>
<polygon fill="black" stroke="black" points="561.47,-48.12 563.62,-37.74 555.47,-44.51 561.47,-48.12"/>
</g>
<!-- Glance HTML\n(curve_*.html) -->
<g id="node19" class="node">
<title>Glance HTML\n(curve_*.html)</title>
<polygon fill="none" stroke="black" points="144.75,-113 141.75,-117 120.75,-117 117.75,-113 47,-113 47,-72 144.75,-72 144.75,-113"/>
<text text-anchor="middle" x="95.88" y="-95.7" font-family="Times New Roman,serif" font-size="14.00">Glance HTML</text>
<text text-anchor="middle" x="95.88" y="-79.2" font-family="Times New Roman,serif" font-size="14.00">(curve_*.html)</text>
</g>
<!-- pvpython&#45;&gt;Glance HTML\n(curve_*.html) -->
<g id="edge8" class="edge">
<title>pvpython&#45;&gt;Glance HTML\n(curve_*.html)</title>
<path fill="none" stroke="black" d="M184.09,-148.63C169.99,-139.82 152.59,-128.95 136.98,-119.19"/>
<polygon fill="black" stroke="black" points="139.15,-116.42 128.81,-114.09 135.44,-122.35 139.15,-116.42"/>
</g>
<!-- Glance DATA\n(curve_*.vtkjs) -->
<g id="node20" class="node">
<title>Glance DATA\n(curve_*.vtkjs)</title>
<polygon fill="none" stroke="black" points="261.12,-113 258.12,-117 237.12,-117 234.12,-113 162.62,-113 162.62,-72 261.12,-72 261.12,-113"/>
<text text-anchor="middle" x="211.88" y="-95.7" font-family="Times New Roman,serif" font-size="14.00">Glance DATA</text>
<text text-anchor="middle" x="211.88" y="-79.2" font-family="Times New Roman,serif" font-size="14.00">(curve_*.vtkjs)</text>
</g>
<!-- pvpython&#45;&gt;Glance DATA\n(curve_*.vtkjs) -->
<g id="edge9" class="edge">
<title>pvpython&#45;&gt;Glance DATA\n(curve_*.vtkjs)</title>
<path fill="none" stroke="black" d="M211.88,-148.82C211.88,-141.59 211.88,-132.95 211.88,-124.66"/>
<polygon fill="black" stroke="black" points="215.38,-124.89 211.88,-114.89 208.38,-124.89 215.38,-124.89"/>
</g>
<!-- Glance Preview\n(curve_pv_*.png) -->
<g id="node21" class="node">
<title>Glance Preview\n(curve_pv_*.png)</title>
<polygon fill="none" stroke="black" points="392.25,-113 389.25,-117 368.25,-117 365.25,-113 279.5,-113 279.5,-72 392.25,-72 392.25,-113"/>
<text text-anchor="middle" x="335.88" y="-95.7" font-family="Times New Roman,serif" font-size="14.00">Glance Preview</text>
<text text-anchor="middle" x="335.88" y="-79.2" font-family="Times New Roman,serif" font-size="14.00">(curve_pv_*.png)</text>
</g>
<!-- pvpython&#45;&gt;Glance Preview\n(curve_pv_*.png) -->
<g id="edge10" class="edge">
<title>pvpython&#45;&gt;Glance Preview\n(curve_pv_*.png)</title>
<path fill="none" stroke="black" d="M241.58,-148.63C256.79,-139.74 275.6,-128.74 292.41,-118.91"/>
<polygon fill="black" stroke="black" points="293.86,-122.12 300.73,-114.05 290.33,-116.07 293.86,-122.12"/>
</g>
<!-- Browser -->
<g id="node22" class="node">
<title>Browser</title>
<polygon fill="none" stroke="black" points="242.75,-36 185,-36 181,-32 181,0 238.75,0 242.75,-4 242.75,-36"/>
<polyline fill="none" stroke="black" points="238.75,-32 181,-32"/>
<polyline fill="none" stroke="black" points="238.75,-32 238.75,0"/>
<polyline fill="none" stroke="black" points="238.75,-32 242.75,-36"/>
<text text-anchor="middle" x="211.88" y="-12.95" font-family="Times New Roman,serif" font-size="14.00">Browser</text>
</g>
<!-- Glance HTML\n(curve_*.html)&#45;&gt;Browser -->
<g id="edge14" class="edge">
<title>Glance HTML\n(curve_*.html)&#45;&gt;Browser</title>
<path fill="none" stroke="black" d="M127.57,-71.69C142.1,-62.61 159.42,-51.78 174.57,-42.31"/>
<polygon fill="black" stroke="black" points="176.26,-45.39 182.88,-37.12 172.55,-39.45 176.26,-45.39"/>
</g>
<!-- Glance DATA\n(curve_*.vtkjs)&#45;&gt;Browser -->
<g id="edge15" class="edge">
<title>Glance DATA\n(curve_*.vtkjs)&#45;&gt;Browser</title>
<path fill="none" stroke="black" d="M211.88,-71.69C211.88,-64.25 211.88,-55.64 211.88,-47.57"/>
<polygon fill="black" stroke="black" points="215.38,-47.83 211.88,-37.83 208.38,-47.83 215.38,-47.83"/>
</g>
<!-- Glance Preview\n(curve_pv_*.png)&#45;&gt;Browser -->
<g id="edge16" class="edge">
<title>Glance Preview\n(curve_pv_*.png)&#45;&gt;Browser</title>
<path fill="none" stroke="black" d="M301.99,-71.69C286.31,-62.52 267.59,-51.58 251.29,-42.04"/>
<polygon fill="black" stroke="black" points="253.2,-39.11 242.8,-37.08 249.67,-45.15 253.2,-39.11"/>
</g>
</g>
</svg>
