<?xml version="1.0" encoding="UTF-8" standalone="no"?>
<!DOCTYPE svg PUBLIC "-//W3C//DTD SVG 1.1//EN"
 "http://www.w3.org/Graphics/SVG/1.1/DTD/svg11.dtd">
<!-- Generated by graphviz version 12.2.1 (0)
 -->
<!-- Pages: 1 -->
<svg width="740pt" height="871pt"
 viewBox="0.00 0.00 740.38 871.00" xmlns="http://www.w3.org/2000/svg" xmlns:xlink="http://www.w3.org/1999/xlink">
<g id="graph0" class="graph" transform="scale(1 1) rotate(0) translate(4 867)">
<polygon fill="white" stroke="none" points="-4,4 -4,-867 736.38,-867 736.38,4 -4,4"/>
<!-- ODE Solver Template\n(curve_template.f90) -->
<g id="node1" class="node">
<title>ODE Solver Template\n(curve_template.f90)</title>
<polygon fill="none" stroke="black" points="130.88,-863 0.12,-863 0.12,-822 136.88,-822 136.88,-857 130.88,-863"/>
<polyline fill="none" stroke="black" points="130.88,-863 130.88,-857"/>
<polyline fill="none" stroke="black" points="136.88,-857 130.88,-857"/>
<text text-anchor="middle" x="68.5" y="-845.7" font-family="Times New Roman,serif" font-size="14.00">ODE Solver Template</text>
<text text-anchor="middle" x="68.5" y="-829.2" font-family="Times New Roman,serif" font-size="14.00">(curve_template.f90)</text>
</g>
<!-- json2fortran.rb -->
<g id="node5" class="node">
<title>json2fortran.rb</title>
<polygon fill="none" stroke="black" points="344,-786 251,-786 247,-782 247,-750 340,-750 344,-754 344,-786"/>
<polyline fill="none" stroke="black" points="340,-782 247,-782"/>
<polyline fill="none" stroke="black" points="340,-782 340,-750"/>
<polyline fill="none" stroke="black" points="340,-782 344,-786"/>
<text text-anchor="middle" x="295.5" y="-762.95" font-family="Times New Roman,serif" font-size="14.00">json2fortran.rb</text>
</g>
<!-- ODE Solver Template\n(curve_template.f90)&#45;&gt;json2fortran.rb -->
<g id="edge23" class="edge">
<title>ODE Solver Template\n(curve_template.f90)&#45;&gt;json2fortran.rb</title>
<path fill="none" stroke="black" d="M130.83,-821.59C163.61,-811.12 203.6,-798.35 235.96,-788.02"/>
<polygon fill="black" stroke="black" points="236.71,-791.45 245.17,-785.07 234.58,-784.78 236.71,-791.45"/>
</g>
<!-- GNUplot Template\n(curve_template.gplt) -->
<g id="node2" class="node">
<title>GNUplot Template\n(curve_template.gplt)</title>
<polygon fill="none" stroke="black" points="282.38,-863 154.62,-863 154.62,-822 288.38,-822 288.38,-857 282.38,-863"/>
<polyline fill="none" stroke="black" points="282.38,-863 282.38,-857"/>
<polyline fill="none" stroke="black" points="288.38,-857 282.38,-857"/>
<text text-anchor="middle" x="221.5" y="-845.7" font-family="Times New Roman,serif" font-size="14.00">GNUplot Template</text>
<text text-anchor="middle" x="221.5" y="-829.2" font-family="Times New Roman,serif" font-size="14.00">(curve_template.gplt)</text>
</g>
<!-- GNUplot Template\n(curve_template.gplt)&#45;&gt;json2fortran.rb -->
<g id="edge24" class="edge">
<title>GNUplot Template\n(curve_template.gplt)&#45;&gt;json2fortran.rb</title>
<path fill="none" stroke="black" d="M241.72,-821.69C250.37,-813.21 260.57,-803.22 269.75,-794.23"/>
<polygon fill="black" stroke="black" points="272.05,-796.88 276.74,-787.38 267.15,-791.88 272.05,-796.88"/>
</g>
<!-- Paraview Template\n(curve_template.py) -->
<g id="node3" class="node">
<title>Paraview Template\n(curve_template.py)</title>
<polygon fill="none" stroke="black" points="426.62,-863 306.38,-863 306.38,-822 432.62,-822 432.62,-857 426.62,-863"/>
<polyline fill="none" stroke="black" points="426.62,-863 426.62,-857"/>
<polyline fill="none" stroke="black" points="432.62,-857 426.62,-857"/>
<text text-anchor="middle" x="369.5" y="-845.7" font-family="Times New Roman,serif" font-size="14.00">Paraview Template</text>
<text text-anchor="middle" x="369.5" y="-829.2" font-family="Times New Roman,serif" font-size="14.00">(curve_template.py)</text>
</g>
<!-- Paraview Template\n(curve_template.py)&#45;&gt;json2fortran.rb -->
<g id="edge25" class="edge">
<title>Paraview Template\n(curve_template.py)&#45;&gt;json2fortran.rb</title>
<path fill="none" stroke="black" d="M349.28,-821.69C340.63,-813.21 330.43,-803.22 321.25,-794.23"/>
<polygon fill="black" stroke="black" points="323.85,-791.88 314.26,-787.38 318.95,-796.88 323.85,-791.88"/>
</g>
<!-- ZOO JSON\n(zoo.json) -->
<g id="node4" class="node">
<title>ZOO JSON\n(zoo.json)</title>
<polygon fill="none" stroke="black" points="524.38,-863 450.62,-863 450.62,-822 530.38,-822 530.38,-857 524.38,-863"/>
<polyline fill="none" stroke="black" points="524.38,-863 524.38,-857"/>
<polyline fill="none" stroke="black" points="530.38,-857 524.38,-857"/>
<text text-anchor="middle" x="490.5" y="-845.7" font-family="Times New Roman,serif" font-size="14.00">ZOO JSON</text>
<text text-anchor="middle" x="490.5" y="-829.2" font-family="Times New Roman,serif" font-size="14.00">(zoo.json)</text>
</g>
<!-- ZOO JSON\n(zoo.json)&#45;&gt;json2fortran.rb -->
<g id="edge26" class="edge">
<title>ZOO JSON\n(zoo.json)&#45;&gt;json2fortran.rb</title>
<path fill="none" stroke="black" d="M450.16,-825.33C447.23,-824.2 444.32,-823.07 441.5,-822 413.15,-811.21 381.52,-799.67 354.97,-790.12"/>
<polygon fill="black" stroke="black" points="356.32,-786.89 345.73,-786.81 353.96,-793.48 356.32,-786.89"/>
</g>
<!-- ODE Solver Programs\n(curve_*.f90) -->
<g id="node7" class="node">
<title>ODE Solver Programs\n(curve_*.f90)</title>
<polygon fill="none" stroke="black" points="434,-714 431,-718 410,-718 407,-714 295,-714 295,-673 434,-673 434,-714"/>
<text text-anchor="middle" x="364.5" y="-696.7" font-family="Times New Roman,serif" font-size="14.00">ODE Solver Programs</text>
<text text-anchor="middle" x="364.5" y="-680.2" font-family="Times New Roman,serif" font-size="14.00">(curve_*.f90)</text>
</g>
<!-- json2fortran.rb&#45;&gt;ODE Solver Programs\n(curve_*.f90) -->
<g id="edge27" class="edge">
<title>json2fortran.rb&#45;&gt;ODE Solver Programs\n(curve_*.f90)</title>
<path fill="none" stroke="black" d="M311.85,-749.82C319.6,-741.68 329.06,-731.74 337.81,-722.54"/>
<polygon fill="black" stroke="black" points="340.18,-725.13 344.53,-715.48 335.11,-720.31 340.18,-725.13"/>
</g>
<!-- GNUplot Input\n(curve_*.gplt) -->
<g id="node8" class="node">
<title>GNUplot Input\n(curve_*.gplt)</title>
<polygon fill="none" stroke="black" points="276.75,-714 273.75,-718 252.75,-718 249.75,-714 178.25,-714 178.25,-673 276.75,-673 276.75,-714"/>
<text text-anchor="middle" x="227.5" y="-696.7" font-family="Times New Roman,serif" font-size="14.00">GNUplot Input</text>
<text text-anchor="middle" x="227.5" y="-680.2" font-family="Times New Roman,serif" font-size="14.00">(curve_*.gplt)</text>
</g>
<!-- json2fortran.rb&#45;&gt;GNUplot Input\n(curve_*.gplt) -->
<g id="edge28" class="edge">
<title>json2fortran.rb&#45;&gt;GNUplot Input\n(curve_*.gplt)</title>
<path fill="none" stroke="black" d="M279.38,-749.82C271.75,-741.68 262.43,-731.74 253.8,-722.54"/>
<polygon fill="black" stroke="black" points="256.58,-720.38 247.18,-715.49 251.47,-725.17 256.58,-720.38"/>
</g>
<!-- Paraview Batch\n(curve_batch_*.py) -->
<g id="node9" class="node">
<title>Paraview Batch\n(curve_batch_*.py)</title>
<polygon fill="none" stroke="black" points="160.38,-714 157.38,-718 136.38,-718 133.38,-714 38.62,-714 38.62,-673 160.38,-673 160.38,-714"/>
<text text-anchor="middle" x="99.5" y="-696.7" font-family="Times New Roman,serif" font-size="14.00">Paraview Batch</text>
<text text-anchor="middle" x="99.5" y="-680.2" font-family="Times New Roman,serif" font-size="14.00">(curve_batch_*.py)</text>
</g>
<!-- json2fortran.rb&#45;&gt;Paraview Batch\n(curve_batch_*.py) -->
<g id="edge29" class="edge">
<title>json2fortran.rb&#45;&gt;Paraview Batch\n(curve_batch_*.py)</title>
<path fill="none" stroke="black" d="M248.55,-749.63C223.26,-740.28 191.67,-728.59 164.09,-718.39"/>
<polygon fill="black" stroke="black" points="165.35,-715.13 154.76,-714.94 162.92,-721.69 165.35,-715.13"/>
</g>
<!-- Paraview Interactive\n(curve_*.py) -->
<g id="node11" class="node">
<title>Paraview Interactive\n(curve_*.py)</title>
<polygon fill="none" stroke="black" points="732.38,-714 729.38,-718 708.38,-718 705.38,-714 604.62,-714 604.62,-673 732.38,-673 732.38,-714"/>
<text text-anchor="middle" x="668.5" y="-696.7" font-family="Times New Roman,serif" font-size="14.00">Paraview Interactive</text>
<text text-anchor="middle" x="668.5" y="-680.2" font-family="Times New Roman,serif" font-size="14.00">(curve_*.py)</text>
</g>
<!-- json2fortran.rb&#45;&gt;Paraview Interactive\n(curve_*.py) -->
<g id="edge30" class="edge">
<title>json2fortran.rb&#45;&gt;Paraview Interactive\n(curve_*.py)</title>
<path fill="none" stroke="black" d="M344.34,-759.7C401.65,-750.83 499.75,-734.75 593.38,-714.38"/>
<polygon fill="black" stroke="black" points="593.99,-717.83 603,-712.26 592.49,-710.99 593.99,-717.83"/>
</g>
<!-- MRKISS\n(github.com/richmit/) -->
<g id="node6" class="node">
<title>MRKISS\n(github.com/richmit/)</title>
<polygon fill="none" stroke="black" points="586.75,-714 452.25,-714 452.25,-710 448.25,-710 448.25,-706 452.25,-706 452.25,-681 448.25,-681 448.25,-677 452.25,-677 452.25,-673 586.75,-673 586.75,-714"/>
<polyline fill="none" stroke="black" points="452.25,-710 456.25,-710 456.25,-706 452.25,-706"/>
<polyline fill="none" stroke="black" points="452.25,-681 456.25,-681 456.25,-677 452.25,-677"/>
<text text-anchor="middle" x="519.5" y="-696.7" font-family="Times New Roman,serif" font-size="14.00">MRKISS</text>
<text text-anchor="middle" x="519.5" y="-680.2" font-family="Times New Roman,serif" font-size="14.00">(github.com/richmit/)</text>
</g>
<!-- fortran compile/run -->
<g id="node12" class="node">
<title>fortran compile/run</title>
<polygon fill="none" stroke="black" points="425.75,-637 307.25,-637 303.25,-633 303.25,-601 421.75,-601 425.75,-605 425.75,-637"/>
<polyline fill="none" stroke="black" points="421.75,-633 303.25,-633"/>
<polyline fill="none" stroke="black" points="421.75,-633 421.75,-601"/>
<polyline fill="none" stroke="black" points="421.75,-633 425.75,-637"/>
<text text-anchor="middle" x="364.5" y="-613.95" font-family="Times New Roman,serif" font-size="14.00">fortran compile/run</text>
</g>
<!-- MRKISS\n(github.com/richmit/)&#45;&gt;fortran compile/run -->
<g id="edge1" class="edge">
<title>MRKISS\n(github.com/richmit/)&#45;&gt;fortran compile/run</title>
<path fill="none" stroke="black" d="M477.15,-672.69C456.98,-663.26 432.78,-651.94 412,-642.22"/>
<polygon fill="black" stroke="black" points="413.7,-639.15 403.16,-638.08 410.73,-645.49 413.7,-639.15"/>
</g>
<!-- ODE Solver Programs\n(curve_*.f90)&#45;&gt;fortran compile/run -->
<g id="edge2" class="edge">
<title>ODE Solver Programs\n(curve_*.f90)&#45;&gt;fortran compile/run</title>
<path fill="none" stroke="black" d="M364.5,-672.69C364.5,-665.25 364.5,-656.64 364.5,-648.57"/>
<polygon fill="black" stroke="black" points="368,-648.83 364.5,-638.83 361,-648.83 368,-648.83"/>
</g>
<!-- GNUplot -->
<g id="node13" class="node">
<title>GNUplot</title>
<polygon fill="none" stroke="black" points="263.62,-488 201.38,-488 197.38,-484 197.38,-452 259.62,-452 263.62,-456 263.62,-488"/>
<polyline fill="none" stroke="black" points="259.62,-484 197.38,-484"/>
<polyline fill="none" stroke="black" points="259.62,-484 259.62,-452"/>
<polyline fill="none" stroke="black" points="259.62,-484 263.62,-488"/>
<text text-anchor="middle" x="230.5" y="-464.95" font-family="Times New Roman,serif" font-size="14.00">GNUplot</text>
</g>
<!-- GNUplot Input\n(curve_*.gplt)&#45;&gt;GNUplot -->
<g id="edge5" class="edge">
<title>GNUplot Input\n(curve_*.gplt)&#45;&gt;GNUplot</title>
<path fill="none" stroke="black" d="M227.77,-672.84C228.3,-633.66 229.49,-545.67 230.11,-499.9"/>
<polygon fill="black" stroke="black" points="233.61,-500 230.24,-489.96 226.61,-499.91 233.61,-500"/>
</g>
<!-- pvpython -->
<g id="node18" class="node">
<title>pvpython</title>
<polygon fill="none" stroke="black" points="230,-336.5 167,-336.5 163,-332.5 163,-300.5 226,-300.5 230,-304.5 230,-336.5"/>
<polyline fill="none" stroke="black" points="226,-332.5 163,-332.5"/>
<polyline fill="none" stroke="black" points="226,-332.5 226,-300.5"/>
<polyline fill="none" stroke="black" points="226,-332.5 230,-336.5"/>
<text text-anchor="middle" x="196.5" y="-313.45" font-family="Times New Roman,serif" font-size="14.00">pvpython</text>
</g>
<!-- Paraview Batch\n(curve_batch_*.py)&#45;&gt;pvpython -->
<g id="edge14" class="edge">
<title>Paraview Batch\n(curve_batch_*.py)&#45;&gt;pvpython</title>
<path fill="none" stroke="black" d="M105.05,-672.71C112.41,-644.65 124.5,-591.58 124.5,-545.5 124.5,-545.5 124.5,-545.5 124.5,-469 124.5,-421.89 153.87,-373.97 175.1,-345.49"/>
<polygon fill="black" stroke="black" points="177.69,-347.87 181.01,-337.81 172.14,-343.6 177.69,-347.87"/>
</g>
<!-- Paraview Glance\n(ParaViewGlance.html) -->
<g id="node10" class="node">
<title>Paraview Glance\n(ParaViewGlance.html)</title>
<polygon fill="none" stroke="black" points="139,-339 0,-339 0,-298 145,-298 145,-333 139,-339"/>
<polyline fill="none" stroke="black" points="139,-339 139,-333"/>
<polyline fill="none" stroke="black" points="145,-333 139,-333"/>
<text text-anchor="middle" x="72.5" y="-321.7" font-family="Times New Roman,serif" font-size="14.00">Paraview Glance</text>
<text text-anchor="middle" x="72.5" y="-305.2" font-family="Times New Roman,serif" font-size="14.00">(ParaViewGlance.html)</text>
</g>
<!-- Paraview Glance\n(ParaViewGlance.html)&#45;&gt;pvpython -->
<g id="edge12" class="edge">
<title>Paraview Glance\n(ParaViewGlance.html)&#45;&gt;pvpython</title>
<path fill="none" stroke="black" d="M145.16,-318.5C147.27,-318.5 149.38,-318.5 151.5,-318.5"/>
<polygon fill="black" stroke="black" points="151.29,-322 161.29,-318.5 151.29,-315 151.29,-322"/>
</g>
<!-- Paraview -->
<g id="node24" class="node">
<title>Paraview</title>
<polygon fill="none" stroke="black" points="551.62,-36 489.38,-36 485.38,-32 485.38,0 547.62,0 551.62,-4 551.62,-36"/>
<polyline fill="none" stroke="black" points="547.62,-32 485.38,-32"/>
<polyline fill="none" stroke="black" points="547.62,-32 547.62,0"/>
<polyline fill="none" stroke="black" points="547.62,-32 551.62,-36"/>
<text text-anchor="middle" x="518.5" y="-12.95" font-family="Times New Roman,serif" font-size="14.00">Paraview</text>
</g>
<!-- Paraview Interactive\n(curve_*.py)&#45;&gt;Paraview -->
<g id="edge18" class="edge">
<title>Paraview Interactive\n(curve_*.py)&#45;&gt;Paraview</title>
<path fill="none" stroke="black" d="M644.02,-672.67C615,-646.76 570.5,-598.41 570.5,-545.5 570.5,-545.5 570.5,-545.5 570.5,-166 570.5,-122.12 549.65,-74.87 534.36,-46.12"/>
<polygon fill="black" stroke="black" points="537.63,-44.81 529.75,-37.72 531.5,-48.17 537.63,-44.81"/>
</g>
<!-- CSV Data Files\n(curve_*.csv) -->
<g id="node14" class="node">
<title>CSV Data Files\n(curve_*.csv)</title>
<polygon fill="none" stroke="black" points="414.25,-565 411.25,-569 390.25,-569 387.25,-565 312.75,-565 312.75,-524 414.25,-524 414.25,-565"/>
<text text-anchor="middle" x="363.5" y="-547.7" font-family="Times New Roman,serif" font-size="14.00">CSV Data Files</text>
<text text-anchor="middle" x="363.5" y="-531.2" font-family="Times New Roman,serif" font-size="14.00">(curve_*.csv)</text>
</g>
<!-- fortran compile/run&#45;&gt;CSV Data Files\n(curve_*.csv) -->
<g id="edge3" class="edge">
<title>fortran compile/run&#45;&gt;CSV Data Files\n(curve_*.csv)</title>
<path fill="none" stroke="black" d="M364.26,-600.82C364.16,-593.59 364.04,-584.95 363.93,-576.66"/>
<polygon fill="black" stroke="black" points="367.43,-576.85 363.8,-566.89 360.43,-576.94 367.43,-576.85"/>
</g>
<!-- GNUplot Images\n(curve_gp_*.png) -->
<g id="node15" class="node">
<title>GNUplot Images\n(curve_gp_*.png)</title>
<polygon fill="none" stroke="black" points="286.88,-416 283.88,-420 262.88,-420 259.88,-416 174.12,-416 174.12,-375 286.88,-375 286.88,-416"/>
<text text-anchor="middle" x="230.5" y="-398.7" font-family="Times New Roman,serif" font-size="14.00">GNUplot Images</text>
<text text-anchor="middle" x="230.5" y="-382.2" font-family="Times New Roman,serif" font-size="14.00">(curve_gp_*.png)</text>
</g>
<!-- GNUplot&#45;&gt;GNUplot Images\n(curve_gp_*.png) -->
<g id="edge4" class="edge">
<title>GNUplot&#45;&gt;GNUplot Images\n(curve_gp_*.png)</title>
<path fill="none" stroke="black" d="M230.5,-451.82C230.5,-444.59 230.5,-435.95 230.5,-427.66"/>
<polygon fill="black" stroke="black" points="234,-427.89 230.5,-417.89 227,-427.89 234,-427.89"/>
</g>
<!-- CSV Data Files\n(curve_*.csv)&#45;&gt;GNUplot -->
<g id="edge7" class="edge">
<title>CSV Data Files\n(curve_*.csv)&#45;&gt;GNUplot</title>
<path fill="none" stroke="black" d="M327.16,-523.69C310.18,-514.44 289.88,-503.37 272.28,-493.78"/>
<polygon fill="black" stroke="black" points="274.06,-490.76 263.6,-489.04 270.71,-496.9 274.06,-490.76"/>
</g>
<!-- spaceCurveCSVtoVTU.rb -->
<g id="node16" class="node">
<title>spaceCurveCSVtoVTU.rb</title>
<polygon fill="none" stroke="black" points="442.75,-488 288.25,-488 284.25,-484 284.25,-452 438.75,-452 442.75,-456 442.75,-488"/>
<polyline fill="none" stroke="black" points="438.75,-484 284.25,-484"/>
<polyline fill="none" stroke="black" points="438.75,-484 438.75,-452"/>
<polyline fill="none" stroke="black" points="438.75,-484 442.75,-488"/>
<text text-anchor="middle" x="363.5" y="-464.95" font-family="Times New Roman,serif" font-size="14.00">spaceCurveCSVtoVTU.rb</text>
</g>
<!-- CSV Data Files\n(curve_*.csv)&#45;&gt;spaceCurveCSVtoVTU.rb -->
<g id="edge6" class="edge">
<title>CSV Data Files\n(curve_*.csv)&#45;&gt;spaceCurveCSVtoVTU.rb</title>
<path fill="none" stroke="black" d="M363.5,-523.69C363.5,-516.25 363.5,-507.64 363.5,-499.57"/>
<polygon fill="black" stroke="black" points="367,-499.83 363.5,-489.83 360,-499.83 367,-499.83"/>
</g>
<!-- VTU Data Files\n(curve_*.vtu) -->
<g id="node17" class="node">
<title>VTU Data Files\n(curve_*.vtu)</title>
<polygon fill="none" stroke="black" points="415,-416 412,-420 391,-420 388,-416 312,-416 312,-375 415,-375 415,-416"/>
<text text-anchor="middle" x="363.5" y="-398.7" font-family="Times New Roman,serif" font-size="14.00">VTU Data Files</text>
<text text-anchor="middle" x="363.5" y="-382.2" font-family="Times New Roman,serif" font-size="14.00">(curve_*.vtu)</text>
</g>
<!-- spaceCurveCSVtoVTU.rb&#45;&gt;VTU Data Files\n(curve_*.vtu) -->
<g id="edge8" class="edge">
<title>spaceCurveCSVtoVTU.rb&#45;&gt;VTU Data Files\n(curve_*.vtu)</title>
<path fill="none" stroke="black" d="M363.5,-451.82C363.5,-444.59 363.5,-435.95 363.5,-427.66"/>
<polygon fill="black" stroke="black" points="367,-427.89 363.5,-417.89 360,-427.89 367,-427.89"/>
</g>
<!-- VTU Data Files\n(curve_*.vtu)&#45;&gt;pvpython -->
<g id="edge13" class="edge">
<title>VTU Data Files\n(curve_*.vtu)&#45;&gt;pvpython</title>
<path fill="none" stroke="black" d="M319.19,-374.6C294.94,-363.71 265,-350.26 240.77,-339.38"/>
<polygon fill="black" stroke="black" points="242.36,-336.26 231.8,-335.35 239.49,-342.64 242.36,-336.26"/>
</g>
<!-- VTU Data Files\n(curve_*.vtu)&#45;&gt;Paraview -->
<g id="edge19" class="edge">
<title>VTU Data Files\n(curve_*.vtu)&#45;&gt;Paraview</title>
<path fill="none" stroke="black" d="M375.04,-374.59C390.36,-346.24 415.5,-292.14 415.5,-242.5 415.5,-242.5 415.5,-242.5 415.5,-166 415.5,-115.66 456.52,-70.31 486.79,-43.7"/>
<polygon fill="black" stroke="black" points="488.89,-46.51 494.23,-37.37 484.35,-41.18 488.89,-46.51"/>
</g>
<!-- Glance HTML\n(curve_*.html) -->
<g id="node19" class="node">
<title>Glance HTML\n(curve_*.html)</title>
<polygon fill="none" stroke="black" points="368.38,-262 365.38,-266 344.38,-266 341.38,-262 270.62,-262 270.62,-221 368.38,-221 368.38,-262"/>
<text text-anchor="middle" x="319.5" y="-244.7" font-family="Times New Roman,serif" font-size="14.00">Glance HTML</text>
<text text-anchor="middle" x="319.5" y="-228.2" font-family="Times New Roman,serif" font-size="14.00">(curve_*.html)</text>
</g>
<!-- pvpython&#45;&gt;Glance HTML\n(curve_*.html) -->
<g id="edge9" class="edge">
<title>pvpython&#45;&gt;Glance HTML\n(curve_*.html)</title>
<path fill="none" stroke="black" d="M225.03,-300.1C240.45,-290.7 259.81,-278.9 276.97,-268.43"/>
<polygon fill="black" stroke="black" points="278.77,-271.43 285.49,-263.24 275.13,-265.46 278.77,-271.43"/>
</g>
<!-- Glance DATA\n(curve_*.vtkjs) -->
<g id="node20" class="node">
<title>Glance DATA\n(curve_*.vtkjs)</title>
<polygon fill="none" stroke="black" points="121.75,-262 118.75,-266 97.75,-266 94.75,-262 23.25,-262 23.25,-221 121.75,-221 121.75,-262"/>
<text text-anchor="middle" x="72.5" y="-244.7" font-family="Times New Roman,serif" font-size="14.00">Glance DATA</text>
<text text-anchor="middle" x="72.5" y="-228.2" font-family="Times New Roman,serif" font-size="14.00">(curve_*.vtkjs)</text>
</g>
<!-- pvpython&#45;&gt;Glance DATA\n(curve_*.vtkjs) -->
<g id="edge10" class="edge">
<title>pvpython&#45;&gt;Glance DATA\n(curve_*.vtkjs)</title>
<path fill="none" stroke="black" d="M167.74,-300.1C152.05,-290.61 132.32,-278.68 114.89,-268.14"/>
<polygon fill="black" stroke="black" points="117.15,-265.41 106.78,-263.23 113.53,-271.4 117.15,-265.41"/>
</g>
<!-- Glance Preview\n(curve_pv_*.png) -->
<g id="node21" class="node">
<title>Glance Preview\n(curve_pv_*.png)</title>
<polygon fill="none" stroke="black" points="252.88,-262 249.88,-266 228.88,-266 225.88,-262 140.12,-262 140.12,-221 252.88,-221 252.88,-262"/>
<text text-anchor="middle" x="196.5" y="-244.7" font-family="Times New Roman,serif" font-size="14.00">Glance Preview</text>
<text text-anchor="middle" x="196.5" y="-228.2" font-family="Times New Roman,serif" font-size="14.00">(curve_pv_*.png)</text>
</g>
<!-- pvpython&#45;&gt;Glance Preview\n(curve_pv_*.png) -->
<g id="edge11" class="edge">
<title>pvpython&#45;&gt;Glance Preview\n(curve_pv_*.png)</title>
<path fill="none" stroke="black" d="M196.5,-300.1C196.5,-292.28 196.5,-282.8 196.5,-273.81"/>
<polygon fill="black" stroke="black" points="200,-273.96 196.5,-263.96 193,-273.96 200,-273.96"/>
</g>
<!-- Emacs -->
<g id="node23" class="node">
<title>Emacs</title>
<polygon fill="none" stroke="black" points="223.5,-185 173.5,-185 169.5,-181 169.5,-149 219.5,-149 223.5,-153 223.5,-185"/>
<polyline fill="none" stroke="black" points="219.5,-181 169.5,-181"/>
<polyline fill="none" stroke="black" points="219.5,-181 219.5,-149"/>
<polyline fill="none" stroke="black" points="219.5,-181 223.5,-185"/>
<text text-anchor="middle" x="196.5" y="-161.95" font-family="Times New Roman,serif" font-size="14.00">Emacs</text>
</g>
<!-- Glance HTML\n(curve_*.html)&#45;&gt;Emacs -->
<g id="edge15" class="edge">
<title>Glance HTML\n(curve_*.html)&#45;&gt;Emacs</title>
<path fill="none" stroke="black" d="M285.89,-220.69C269.75,-211.18 250.36,-199.75 233.77,-189.97"/>
<polygon fill="black" stroke="black" points="235.55,-186.96 225.16,-184.89 232,-192.99 235.55,-186.96"/>
</g>
<!-- Glance DATA\n(curve_*.vtkjs)&#45;&gt;Emacs -->
<g id="edge16" class="edge">
<title>Glance DATA\n(curve_*.vtkjs)&#45;&gt;Emacs</title>
<path fill="none" stroke="black" d="M106.38,-220.69C122.93,-211.02 142.86,-199.36 159.77,-189.48"/>
<polygon fill="black" stroke="black" points="161.15,-192.72 168.02,-184.65 157.62,-186.68 161.15,-192.72"/>
</g>
<!-- Glance Preview\n(curve_pv_*.png)&#45;&gt;Emacs -->
<g id="edge17" class="edge">
<title>Glance Preview\n(curve_pv_*.png)&#45;&gt;Emacs</title>
<path fill="none" stroke="black" d="M196.5,-220.69C196.5,-213.25 196.5,-204.64 196.5,-196.57"/>
<polygon fill="black" stroke="black" points="200,-196.83 196.5,-186.83 193,-196.83 200,-196.83"/>
</g>
<!-- Browser -->
<g id="node22" class="node">
<title>Browser</title>
<polygon fill="none" stroke="black" points="227.38,-36 169.62,-36 165.62,-32 165.62,0 223.38,0 227.38,-4 227.38,-36"/>
<polyline fill="none" stroke="black" points="223.38,-32 165.62,-32"/>
<polyline fill="none" stroke="black" points="223.38,-32 223.38,0"/>
<polyline fill="none" stroke="black" points="223.38,-32 227.38,-36"/>
<text text-anchor="middle" x="196.5" y="-12.95" font-family="Times New Roman,serif" font-size="14.00">Browser</text>
</g>
<!-- ZOO Web Page\n(index.html) -->
<g id="node25" class="node">
<title>ZOO Web Page\n(index.html)</title>
<polygon fill="none" stroke="black" points="241.25,-113 145.75,-113 145.75,-72 247.25,-72 247.25,-107 241.25,-113"/>
<polyline fill="none" stroke="black" points="241.25,-113 241.25,-107"/>
<polyline fill="none" stroke="black" points="247.25,-107 241.25,-107"/>
<text text-anchor="middle" x="196.5" y="-95.7" font-family="Times New Roman,serif" font-size="14.00">ZOO Web Page</text>
<text text-anchor="middle" x="196.5" y="-79.2" font-family="Times New Roman,serif" font-size="14.00">(index.html)</text>
</g>
<!-- Emacs&#45;&gt;ZOO Web Page\n(index.html) -->
<g id="edge21" class="edge">
<title>Emacs&#45;&gt;ZOO Web Page\n(index.html)</title>
<path fill="none" stroke="black" d="M196.5,-148.82C196.5,-141.59 196.5,-132.95 196.5,-124.66"/>
<polygon fill="black" stroke="black" points="200,-124.89 196.5,-114.89 193,-124.89 200,-124.89"/>
</g>
<!-- ZOO Web Page\n(index.html)&#45;&gt;Browser -->
<g id="edge22" class="edge">
<title>ZOO Web Page\n(index.html)&#45;&gt;Browser</title>
<path fill="none" stroke="black" d="M196.5,-71.69C196.5,-64.25 196.5,-55.64 196.5,-47.57"/>
<polygon fill="black" stroke="black" points="200,-47.83 196.5,-37.83 193,-47.83 200,-47.83"/>
</g>
<!-- org&#45;mode -->
<g id="node26" class="node">
<title>org&#45;mode</title>
<polygon fill="none" stroke="black" points="151.12,-185 81.88,-185 81.88,-181 77.88,-181 77.88,-177 81.88,-177 81.88,-157 77.88,-157 77.88,-153 81.88,-153 81.88,-149 151.12,-149 151.12,-185"/>
<polyline fill="none" stroke="black" points="81.88,-181 85.88,-181 85.88,-177 81.88,-177"/>
<polyline fill="none" stroke="black" points="81.88,-157 85.88,-157 85.88,-153 81.88,-153"/>
<text text-anchor="middle" x="116.5" y="-161.95" font-family="Times New Roman,serif" font-size="14.00">org&#45;mode</text>
</g>
<!-- org&#45;mode&#45;&gt;Emacs -->
<g id="edge20" class="edge">
<title>org&#45;mode&#45;&gt;Emacs</title>
<path fill="none" stroke="black" d="M151.5,-167C153.61,-167 155.71,-167 157.82,-167"/>
<polygon fill="black" stroke="black" points="157.56,-170.5 167.56,-167 157.56,-163.5 157.56,-170.5"/>
</g>
</g>
</svg>
